<svg xmlns="http://www.w3.org/2000/svg" xmlns:xlink="http://www.w3.org/1999/xlink" width="240" zoomAndPan="magnify" viewBox="0 0 180 61.499998" height="82" preserveAspectRatio="xMidYMid meet" version="1.0"><defs><g/><clipPath id="b80b101706"><path d="M 41 26 L 65 26 L 65 61.003906 L 41 61.003906 Z M 41 26 " clip-rule="nonzero"/></clipPath></defs><g fill="#795b4a" fill-opacity="0.302"><g transform="translate(17.517816, 43.044651)"><g><path d="M 0.761719 3.90625 C 0.914062 3.90625 1.066406 3.90625 1.167969 3.855469 C 1.421875 3.804688 1.675781 3.703125 1.929688 3.601562 C 2.183594 3.449219 2.4375 3.347656 2.691406 3.195312 C 4.363281 2.4375 6.140625 1.980469 7.917969 1.726562 C 10.910156 1.320312 13.703125 0.660156 16.542969 0 C 17 -0.0507812 17.8125 -0.253906 17.8125 -0.8125 C 17.863281 -1.167969 17.609375 -1.523438 17.253906 -1.472656 C 17.050781 -1.472656 16.796875 -1.371094 16.59375 -1.320312 C 14.410156 -0.863281 12.28125 -0.355469 10.097656 0.0507812 C 8.828125 0.304688 7.511719 0.507812 6.242188 0.761719 C 4.921875 0.964844 3.652344 1.320312 2.386719 1.878906 C 2.234375 1.929688 2.132812 1.929688 2.082031 1.878906 C 1.929688 1.878906 1.878906 1.828125 1.878906 1.675781 C 2.03125 1.21875 2.132812 0.8125 2.285156 0.40625 C 4.3125 -6.039062 6.445312 -12.332031 8.625 -18.675781 C 9.488281 -21.109375 10.503906 -23.496094 11.671875 -25.828125 L 12.890625 -28.367188 C 13.042969 -28.621094 13.09375 -28.824219 13.042969 -29.179688 C 12.992188 -29.382812 12.890625 -29.484375 12.738281 -29.484375 C 12.585938 -29.535156 12.484375 -29.535156 12.433594 -29.484375 C 11.824219 -29.128906 10.351562 -25.929688 9.691406 -24.410156 C 9.03125 -22.886719 7.511719 -19.183594 7.257812 -18.574219 C 5.988281 -15.171875 4.820312 -11.722656 3.753906 -8.273438 C 2.691406 -4.769531 1.472656 -1.320312 0.203125 2.132812 L 0.0507812 2.792969 C -0.101562 3.550781 0.101562 3.90625 0.761719 3.90625 Z M 0.761719 3.90625 "/></g></g></g><g fill="#795b4a" fill-opacity="0.302"><g transform="translate(31.776219, 43.044651)"><g><path d="M 2.183594 -1.828125 C 3.550781 -1.828125 4.921875 -2.890625 5.886719 -3.753906 C 8.121094 -5.632812 9.894531 -7.867188 11.671875 -10.148438 C 11.824219 -10.300781 11.925781 -10.453125 11.976562 -10.707031 C 12.027344 -10.960938 11.976562 -11.164062 11.773438 -11.316406 C 11.671875 -11.417969 11.570312 -11.46875 11.417969 -11.46875 C 11.316406 -11.46875 11.214844 -11.417969 11.164062 -11.367188 C 10.910156 -11.164062 10.65625 -10.960938 10.453125 -10.707031 C 10.046875 -10.25 9.640625 -9.742188 9.285156 -9.285156 C 8.929688 -8.828125 8.523438 -8.324219 8.121094 -7.867188 C 6.953125 -6.496094 5.734375 -5.328125 4.363281 -4.160156 C 3.753906 -3.703125 3.195312 -3.347656 2.4375 -3.195312 C 1.878906 -3.195312 1.574219 -3.246094 1.421875 -3.804688 C 1.320312 -4.261719 1.269531 -4.71875 1.320312 -5.125 C 1.625 -7.511719 2.386719 -10.046875 3.246094 -12.28125 C 3.296875 -12.535156 3.246094 -12.738281 2.992188 -12.839844 C 2.839844 -12.890625 2.742188 -12.941406 2.640625 -12.941406 C 2.539062 -12.941406 2.386719 -12.890625 2.234375 -12.789062 C 0.914062 -11.46875 0.355469 -7.359375 0 -5.125 C 0 -4.363281 0 -3.855469 0.203125 -3.296875 C 0.558594 -2.335938 1.21875 -1.828125 2.183594 -1.828125 Z M 3.5 -14.765625 C 4.058594 -14.765625 4.566406 -15.273438 4.566406 -15.832031 C 4.515625 -16.390625 4.160156 -16.644531 3.550781 -16.644531 C 2.941406 -16.644531 2.640625 -16.339844 2.640625 -15.730469 C 2.691406 -15.121094 3.042969 -14.714844 3.5 -14.765625 Z M 3.5 -14.765625 "/></g></g></g><g clip-path="url(#b80b101706)"><g fill="#795b4a" fill-opacity="0.302"><g transform="translate(41.214166, 43.044651)"><g><path d="M 2.941406 17.964844 C 4.71875 17.964844 7.714844 10.910156 8.324219 9.132812 C 8.675781 8.222656 8.980469 7.308594 9.285156 6.394531 C 9.589844 5.480469 9.894531 4.566406 10.25 3.652344 C 10.910156 1.574219 15.882812 -3.347656 17.558594 -4.871094 C 19.335938 -6.445312 20.957031 -7.867188 22.632812 -9.4375 C 22.734375 -9.539062 22.835938 -9.640625 22.988281 -9.792969 C 23.089844 -9.894531 23.191406 -9.996094 23.292969 -10.148438 C 23.496094 -10.402344 23.496094 -10.65625 23.292969 -10.910156 C 23.191406 -11.0625 23.039062 -11.164062 22.835938 -11.164062 C 22.785156 -11.164062 22.683594 -11.113281 22.53125 -11.0625 L 21.769531 -10.453125 C 18.777344 -7.867188 15.882812 -5.226562 13.195312 -2.386719 C 13.042969 -2.234375 12.890625 -2.03125 12.789062 -1.878906 C 12.636719 -1.726562 12.433594 -1.625 12.179688 -1.574219 C 12.027344 -1.929688 12.128906 -2.183594 12.28125 -2.539062 C 13.144531 -5.785156 14.058594 -8.980469 15.222656 -12.230469 C 15.375 -12.585938 15.476562 -12.992188 15.578125 -13.398438 C 15.679688 -13.804688 15.78125 -14.207031 15.882812 -14.613281 C 15.933594 -14.96875 15.832031 -15.273438 15.476562 -15.476562 C 15.375 -15.527344 15.222656 -15.578125 15.070312 -15.578125 C 14.867188 -15.578125 14.714844 -15.527344 14.5625 -15.375 C 14.207031 -15.121094 13.90625 -14.816406 13.601562 -14.511719 C 13.246094 -14.207031 12.941406 -13.90625 12.585938 -13.601562 C 12.535156 -13.550781 12.433594 -13.449219 12.382812 -13.347656 C 12.28125 -13.246094 12.128906 -13.195312 11.976562 -13.195312 C 11.875 -13.195312 11.773438 -13.195312 11.722656 -13.246094 C 11.722656 -15.222656 10.148438 -16.238281 8.375 -16.238281 C 7.5625 -16.238281 6.800781 -15.984375 6.039062 -15.628906 C 2.992188 -14.058594 1.066406 -11.621094 0.203125 -8.324219 C 0 -7.359375 -0.101562 -6.496094 0.101562 -5.53125 C 0.355469 -4.363281 1.117188 -4.058594 2.183594 -4.058594 C 3.398438 -4.160156 6.140625 -6.089844 7.15625 -6.953125 C 8.121094 -7.714844 9.03125 -8.523438 9.945312 -9.335938 C 10.808594 -10.148438 11.722656 -10.960938 12.636719 -11.773438 C 12.789062 -11.925781 12.941406 -12.128906 13.09375 -12.28125 C 13.246094 -12.433594 13.449219 -12.585938 13.703125 -12.636719 C 13.855469 -12.179688 13.753906 -11.925781 13.601562 -11.570312 C 12.941406 -9.539062 12.332031 -7.511719 11.773438 -5.53125 C 11.164062 -3.550781 10.554688 -1.523438 9.945312 0.507812 C 9.691406 1.472656 9.183594 2.335938 8.523438 3.144531 C 5.988281 6.191406 2.890625 10.65625 1.929688 14.5625 C 1.726562 15.425781 1.726562 16.289062 1.878906 17.050781 C 2.082031 17.660156 2.4375 17.964844 2.941406 17.964844 Z M 3.296875 15.882812 C 3.246094 15.832031 3.246094 15.832031 3.195312 15.78125 C 3.144531 15.730469 3.09375 15.730469 3.09375 15.679688 C 3.144531 15.527344 3.144531 15.425781 3.144531 15.273438 C 3.144531 15.121094 3.195312 15.019531 3.246094 14.867188 C 3.804688 12.433594 5.683594 8.980469 7.257812 7.054688 C 7.410156 7.105469 7.511719 7.207031 7.511719 7.308594 C 7.511719 7.410156 7.511719 7.511719 7.460938 7.5625 C 6.496094 10.351562 5.328125 12.941406 3.753906 15.425781 C 3.703125 15.578125 3.601562 15.679688 3.449219 15.832031 C 3.398438 15.832031 3.398438 15.832031 3.398438 15.882812 C 3.347656 15.882812 3.347656 15.882812 3.296875 15.882812 Z M 1.980469 -5.378906 C 1.625 -5.378906 1.421875 -5.632812 1.371094 -6.089844 C 1.320312 -6.648438 1.320312 -7.15625 1.421875 -7.5625 C 2.082031 -10.757812 3.90625 -13.09375 6.800781 -14.511719 C 7.359375 -14.714844 7.765625 -14.867188 8.324219 -14.867188 C 9.335938 -14.867188 10.25 -14.511719 10.402344 -13.347656 L 10.402344 -12.484375 C 10.503906 -11.925781 10.25 -11.367188 9.589844 -10.808594 C 7.96875 -9.386719 6.34375 -7.917969 4.566406 -6.699219 C 3.90625 -6.242188 3.195312 -5.835938 2.4375 -5.480469 C 2.234375 -5.429688 2.082031 -5.378906 1.980469 -5.378906 Z M 1.980469 -5.378906 "/></g></g></g></g><g fill="#795b4a" fill-opacity="0.302"><g transform="translate(62.119726, 43.044651)"><g><path d="M 0.964844 1.625 C 1.117188 1.625 1.320312 1.523438 1.574219 1.371094 C 1.929688 1.117188 2.183594 0.761719 2.386719 0.304688 C 2.792969 -0.40625 3.195312 -1.117188 3.550781 -1.878906 C 4.972656 -4.820312 6.902344 -8.828125 9.132812 -11.316406 C 9.285156 -11.46875 9.488281 -11.671875 9.742188 -11.824219 C 9.792969 -11.875 9.84375 -11.875 9.894531 -11.875 C 10.046875 -11.875 10.097656 -11.824219 10.097656 -11.671875 C 10.148438 -11.417969 10.148438 -11.214844 10.148438 -11.011719 C 10.148438 -10.808594 10.148438 -10.605469 10.148438 -10.351562 C 10.097656 -9.285156 10.097656 -8.222656 10.300781 -7.207031 C 10.554688 -5.988281 11.214844 -5.378906 12.230469 -5.378906 C 13.550781 -5.378906 19.03125 -9.082031 19.4375 -10.554688 C 19.488281 -10.808594 19.386719 -11.011719 19.183594 -11.164062 C 19.132812 -11.214844 19.082031 -11.214844 19.03125 -11.265625 C 18.980469 -11.316406 18.878906 -11.316406 18.828125 -11.316406 C 18.726562 -11.316406 18.625 -11.265625 18.574219 -11.214844 C 18.371094 -11.0625 18.167969 -10.859375 18.015625 -10.65625 C 17.050781 -9.691406 14.109375 -7.460938 12.890625 -6.902344 C 12.6875 -6.800781 12.484375 -6.75 12.28125 -6.75 C 11.925781 -6.75 11.671875 -7.054688 11.570312 -7.613281 C 11.519531 -7.816406 11.46875 -8.019531 11.46875 -8.273438 C 11.46875 -8.476562 11.46875 -8.675781 11.46875 -8.929688 C 11.417969 -9.335938 11.417969 -9.742188 11.46875 -10.148438 C 11.46875 -10.554688 11.46875 -10.960938 11.46875 -11.417969 C 11.46875 -11.621094 11.46875 -11.824219 11.519531 -12.078125 C 11.519531 -12.28125 11.46875 -12.484375 11.417969 -12.738281 C 11.316406 -13.398438 10.960938 -13.753906 10.351562 -13.753906 C 10.046875 -13.753906 9.792969 -13.652344 9.589844 -13.5 C 6.953125 -11.671875 3.804688 -5.53125 2.4375 -2.640625 C 2.285156 -2.386719 2.183594 -2.132812 2.082031 -1.878906 C 1.980469 -1.625 1.777344 -1.371094 1.421875 -1.117188 C 1.371094 -1.472656 1.320312 -1.574219 1.320312 -1.777344 C 1.320312 -5.328125 2.890625 -13.5 4.871094 -16.644531 C 7.511719 -20.703125 9.539062 -24.867188 11.519531 -29.28125 C 11.621094 -29.535156 11.722656 -29.789062 11.824219 -30.042969 C 11.925781 -30.296875 12.027344 -30.550781 12.078125 -30.804688 C 12.128906 -30.957031 12.179688 -31.058594 12.179688 -31.207031 C 12.179688 -31.359375 12.179688 -31.460938 12.179688 -31.613281 C 12.179688 -31.867188 12.027344 -32.019531 11.671875 -32.019531 C 11.621094 -32.019531 11.570312 -32.019531 11.519531 -31.96875 C 11.265625 -31.816406 11.011719 -31.664062 10.859375 -31.511719 C 7.410156 -26.996094 4.71875 -21.261719 2.941406 -15.933594 C 2.742188 -15.375 2.539062 -14.867188 2.386719 -14.359375 C 2.183594 -13.855469 1.929688 -13.347656 1.574219 -12.890625 C 1.523438 -12.738281 1.421875 -12.636719 1.371094 -12.484375 C 1.269531 -12.332031 1.269531 -12.128906 1.320312 -11.976562 C 1.472656 -11.621094 1.523438 -11.265625 1.472656 -10.960938 C 1.371094 -10.65625 1.269531 -10.351562 1.21875 -10.046875 C 1.117188 -9.386719 1.015625 -8.726562 0.863281 -8.121094 C 0.710938 -7.460938 0.558594 -6.800781 0.457031 -6.140625 C 0.101562 -4.160156 -0.152344 -2.335938 0 -0.355469 C 0 0.101562 0.0507812 0.558594 0.152344 0.964844 C 0.304688 1.421875 0.609375 1.625 0.964844 1.625 Z M 7.105469 -22.734375 C 7.359375 -22.988281 7.410156 -23.242188 7.460938 -23.597656 C 7.511719 -23.34375 7.410156 -23.089844 7.15625 -22.785156 L 7.15625 -22.734375 Z M 7.5625 -23.699219 C 7.714844 -23.851562 7.816406 -23.902344 7.867188 -23.953125 Z M 8.019531 -24.207031 L 8.171875 -24.613281 C 8.121094 -24.5625 8.121094 -24.460938 8.121094 -24.410156 C 8.121094 -24.359375 8.070312 -24.257812 8.019531 -24.207031 Z M 8.019531 -24.207031 "/></g></g></g><g fill="#795b4a" fill-opacity="0.302"><g transform="translate(79.01669, 43.044651)"><g><path d="M 0.914062 3.601562 C 1.726562 3.601562 2.691406 2.890625 3.144531 2.285156 C 4.769531 0.40625 6.597656 -2.082031 8.273438 -4.363281 C 9.691406 -6.292969 11.570312 -8.878906 12.585938 -10.097656 C 12.6875 -10.199219 12.738281 -10.300781 12.738281 -10.402344 C 12.890625 -10.707031 12.839844 -10.960938 12.585938 -11.164062 C 12.433594 -11.214844 12.332031 -11.265625 12.230469 -11.265625 C 12.179688 -11.265625 12.179688 -11.265625 12.128906 -11.265625 C 12.078125 -11.214844 12.078125 -11.214844 12.027344 -11.214844 C 11.773438 -11.113281 11.570312 -10.960938 11.417969 -10.808594 C 11.265625 -10.605469 11.0625 -10.402344 10.910156 -10.199219 C 9.4375 -8.726562 4.972656 -2.03125 2.839844 0.660156 C 2.589844 0.964844 2.335938 1.269531 2.082031 1.574219 C 1.828125 1.828125 1.523438 2.03125 1.066406 2.082031 C 0.304688 1.472656 0.558594 0.558594 0.609375 -0.203125 C 0.761719 -1.980469 0.964844 -3.601562 1.371094 -5.277344 C 2.03125 -8.222656 4.667969 -16.289062 5.835938 -18.878906 C 6.089844 -19.539062 6.597656 -19.839844 7.308594 -19.890625 L 18.21875 -20.855469 C 18.472656 -20.90625 18.675781 -20.90625 18.878906 -20.957031 C 19.082031 -20.957031 19.285156 -21.007812 19.539062 -21.058594 C 19.742188 -21.109375 19.839844 -21.3125 19.839844 -21.566406 C 19.792969 -21.921875 19.640625 -22.074219 19.4375 -22.074219 L 17.609375 -22.074219 C 16.1875 -21.921875 14.664062 -21.769531 12.992188 -21.667969 C 11.316406 -21.515625 9.792969 -21.363281 8.375 -21.210938 C 8.324219 -21.210938 8.222656 -21.210938 8.121094 -21.210938 C 8.019531 -21.160156 7.917969 -21.160156 7.816406 -21.160156 C 7.613281 -21.160156 7.410156 -21.210938 7.15625 -21.261719 C 7.15625 -21.515625 7.207031 -21.769531 7.308594 -21.972656 C 7.359375 -22.125 7.460938 -22.328125 7.511719 -22.480469 C 8.171875 -23.851562 8.828125 -25.171875 9.386719 -26.539062 C 9.640625 -26.996094 9.691406 -27.402344 9.640625 -27.65625 C 9.539062 -27.910156 9.386719 -28.011719 9.183594 -28.011719 C 8.828125 -28.011719 8.476562 -27.707031 8.121094 -27.097656 C 7.867188 -26.691406 7.613281 -26.285156 7.410156 -25.878906 C 7.15625 -25.472656 6.953125 -25.070312 6.699219 -24.664062 L 5.328125 -21.617188 C 5.074219 -21.058594 4.667969 -20.804688 4.058594 -20.753906 C 3.195312 -20.652344 2.285156 -20.550781 1.371094 -20.449219 C 0.457031 -20.347656 -0.457031 -20.246094 -1.371094 -20.09375 C -1.625 -20.042969 -1.878906 -19.992188 -2.132812 -19.941406 C -2.335938 -19.890625 -2.539062 -19.792969 -2.792969 -19.742188 C -3.042969 -19.691406 -3.09375 -19.488281 -3.042969 -19.183594 C -2.992188 -19.03125 -2.890625 -18.929688 -2.691406 -18.878906 C -2.539062 -18.828125 -2.386719 -18.828125 -2.132812 -18.828125 C -1.726562 -18.828125 -1.269531 -18.929688 -0.863281 -18.980469 C -0.203125 -19.03125 0.507812 -19.132812 1.21875 -19.234375 C 1.878906 -19.335938 2.589844 -19.4375 3.246094 -19.488281 L 3.652344 -19.488281 C 4.261719 -19.488281 4.3125 -19.234375 4.058594 -18.472656 C 3.703125 -17.609375 3.449219 -16.796875 3.09375 -15.832031 C 1.421875 -11.265625 -0.710938 -4.3125 -0.710938 0.609375 C -0.710938 1.777344 -0.40625 3.601562 0.914062 3.601562 Z M 0.914062 3.601562 "/></g></g></g><g fill="#795b4a" fill-opacity="0.302"><g transform="translate(89.215761, 43.044651)"><g/></g></g><g fill="#795b4a" fill-opacity="0.302"><g transform="translate(108.497589, 43.044651)"><g><path d="M 7.867188 5.785156 C 8.222656 5.785156 8.574219 5.734375 8.878906 5.582031 C 11.773438 4.71875 15.476562 -0.203125 16.644531 -2.941406 C 17.101562 -3.90625 17.8125 -4.617188 18.777344 -5.125 C 20.144531 -5.785156 21.515625 -6.496094 22.886719 -7.257812 C 24.207031 -7.96875 25.523438 -8.675781 26.84375 -9.386719 C 27.046875 -9.488281 27.25 -9.589844 27.453125 -9.691406 C 27.65625 -9.792969 27.859375 -9.945312 28.011719 -10.097656 C 28.113281 -10.148438 28.164062 -10.300781 28.164062 -10.453125 C 28.164062 -10.605469 28.113281 -10.707031 28.0625 -10.859375 C 27.960938 -11.011719 27.808594 -11.113281 27.65625 -11.113281 C 27.554688 -11.113281 27.503906 -11.113281 27.453125 -11.0625 C 27.300781 -11.011719 27.097656 -10.910156 26.945312 -10.859375 C 26.742188 -10.808594 26.539062 -10.707031 26.386719 -10.65625 L 19.640625 -7.105469 C 19.488281 -7.003906 19.285156 -6.902344 19.132812 -6.800781 C 18.929688 -6.648438 18.726562 -6.597656 18.472656 -6.597656 L 18.269531 -6.597656 C 18.167969 -6.851562 18.167969 -7.105469 18.21875 -7.359375 C 18.269531 -7.5625 18.320312 -7.816406 18.320312 -8.070312 C 18.371094 -10.453125 17 -11.976562 14.613281 -12.128906 C 13.753906 -12.128906 12.941406 -12.128906 12.128906 -11.925781 C 11.367188 -11.773438 10.65625 -11.621094 9.894531 -11.46875 C 9.132812 -11.316406 8.375 -11.113281 7.613281 -10.960938 C 7.207031 -10.910156 6.800781 -10.808594 6.394531 -10.757812 C 5.988281 -10.65625 5.582031 -10.554688 5.175781 -10.503906 C 5.074219 -10.503906 4.972656 -10.503906 4.921875 -10.503906 C 4.820312 -10.453125 4.71875 -10.453125 4.617188 -10.453125 C 2.839844 -10.453125 1.777344 -11.417969 1.421875 -13.398438 C 1.167969 -14.664062 1.269531 -15.933594 1.625 -17.304688 C 3.398438 -23.546875 7.003906 -28.417969 12.433594 -31.917969 C 14.007812 -32.933594 16.1875 -33.796875 18.066406 -33.796875 C 20.246094 -33.796875 22.125 -32.882812 22.125 -30.449219 C 22.125 -27.65625 18.980469 -21.921875 16.035156 -21.414062 C 15.984375 -21.363281 15.933594 -21.363281 15.882812 -21.363281 C 15.832031 -21.363281 15.730469 -21.3125 15.679688 -21.261719 C 15.425781 -21.058594 15.324219 -20.855469 15.375 -20.601562 C 15.425781 -20.195312 15.78125 -20.144531 16.136719 -20.144531 C 17.710938 -20.144531 19.03125 -21.464844 19.992188 -22.53125 C 21.464844 -24.511719 22.53125 -26.589844 23.191406 -28.875 C 23.394531 -29.484375 23.445312 -30.144531 23.394531 -30.855469 C 23.242188 -33.746094 20.753906 -35.117188 18.015625 -35.117188 C 15.578125 -35.117188 13.144531 -34.050781 11.113281 -32.679688 C 6.242188 -29.433594 1.726562 -23.445312 0.40625 -17.761719 C -0.0507812 -15.984375 -0.203125 -14.257812 0.253906 -12.484375 C 0.863281 -10.25 2.488281 -9.183594 4.71875 -9.183594 C 5.785156 -9.183594 6.902344 -9.4375 7.917969 -9.640625 C 8.675781 -9.792969 9.488281 -9.996094 10.300781 -10.148438 C 11.0625 -10.300781 11.875 -10.503906 12.636719 -10.65625 C 13.144531 -10.757812 13.703125 -10.808594 14.257812 -10.808594 C 16.238281 -10.757812 17.152344 -9.742188 16.949219 -7.664062 C 16.796875 -6.496094 16.441406 -5.328125 15.425781 -4.71875 C 14.765625 -4.363281 14.109375 -3.957031 13.5 -3.601562 C 12.839844 -3.195312 12.230469 -2.792969 11.570312 -2.4375 C 9.691406 -1.269531 7.359375 0.660156 6.191406 2.640625 C 5.734375 3.5 5.785156 4.3125 6.445312 5.125 C 6.800781 5.582031 7.308594 5.785156 7.867188 5.785156 Z M 7.96875 4.464844 C 7.816406 4.464844 7.613281 4.363281 7.460938 4.210938 C 7.257812 3.957031 7.207031 3.703125 7.257812 3.449219 C 8.070312 1.269531 12.433594 -1.472656 14.613281 -2.691406 C 13.652344 0 11.417969 2.640625 9.234375 3.90625 C 8.878906 4.109375 8.574219 4.261719 8.222656 4.414062 C 8.171875 4.464844 8.070312 4.464844 7.96875 4.464844 Z M 7.96875 4.464844 "/></g></g></g><g fill="#795b4a" fill-opacity="0.302"><g transform="translate(134.122119, 43.044651)"><g><path d="M 2.132812 -2.539062 C 2.589844 -2.539062 3.09375 -2.691406 3.550781 -2.941406 C 4.210938 -3.398438 4.71875 -3.957031 5.074219 -4.71875 C 5.53125 -5.683594 5.632812 -6.648438 5.429688 -7.613281 C 5.277344 -8.476562 5.226562 -8.476562 6.191406 -8.625 C 7.257812 -8.726562 8.222656 -8.980469 9.183594 -9.335938 C 10.097656 -9.691406 11.0625 -9.996094 12.027344 -10.351562 C 12.484375 -10.503906 12.585938 -10.808594 12.433594 -11.164062 C 12.28125 -11.417969 12.027344 -11.570312 11.773438 -11.570312 L 10.960938 -11.367188 C 10.503906 -11.214844 10.046875 -11.011719 9.589844 -10.859375 C 9.132812 -10.707031 8.625 -10.503906 8.171875 -10.351562 C 7.207031 -10.046875 6.292969 -9.894531 5.328125 -9.894531 L 3.753906 -9.894531 C 3.398438 -9.84375 3.09375 -9.488281 3.246094 -9.132812 C 3.398438 -8.777344 3.550781 -8.476562 3.753906 -8.121094 C 4.515625 -6.953125 4.261719 -5.886719 3.601562 -4.820312 C 3.144531 -4.007812 2.640625 -3.90625 1.828125 -3.90625 C 1.167969 -4.058594 0.8125 -4.667969 0.8125 -5.632812 C 0.8125 -6.191406 0.863281 -6.699219 1.015625 -7.105469 C 1.21875 -7.96875 1.574219 -8.828125 2.03125 -9.691406 C 2.589844 -10.554688 3.042969 -11.417969 4.210938 -11.621094 C 4.566406 -11.671875 4.566406 -11.925781 4.515625 -12.28125 C 4.464844 -12.535156 4.3125 -12.738281 3.957031 -12.789062 C 3.703125 -12.789062 3.5 -12.738281 3.296875 -12.636719 C 1.320312 -11.875 -0.355469 -8.070312 -0.507812 -5.988281 C -0.558594 -5.582031 -0.507812 -5.125 -0.40625 -4.667969 C -0.152344 -3.296875 0.914062 -2.539062 2.132812 -2.539062 Z M 2.132812 -2.539062 "/></g></g></g><g fill="#795b4a" fill-opacity="0.302"><g transform="translate(144.067485, 43.044651)"><g><path d="M 0.8125 13.804688 C 2.183594 13.804688 3.144531 11.214844 3.296875 9.894531 C 3.449219 9.183594 3.550781 8.476562 3.601562 7.765625 C 3.652344 7.054688 3.703125 6.34375 3.753906 5.632812 C 4.007812 2.234375 3.449219 -1.167969 2.183594 -4.464844 L 1.878906 -5.226562 C 1.828125 -5.480469 1.929688 -5.632812 2.132812 -5.785156 C 2.488281 -5.988281 2.941406 -6.140625 3.398438 -6.242188 C 4.363281 -6.597656 5.175781 -6.953125 6.140625 -7.410156 C 7.105469 -7.917969 8.070312 -8.425781 9.03125 -8.929688 C 9.996094 -9.386719 10.960938 -9.894531 11.925781 -10.351562 C 12.078125 -10.453125 12.28125 -10.554688 12.433594 -10.65625 C 12.585938 -10.707031 12.789062 -10.808594 12.941406 -10.910156 C 13.195312 -11.0625 13.296875 -11.316406 13.195312 -11.621094 C 13.144531 -11.925781 12.941406 -12.078125 12.585938 -12.078125 C 12.535156 -12.078125 12.535156 -12.078125 12.535156 -12.078125 C 12.484375 -12.027344 12.484375 -12.027344 12.433594 -12.027344 C 12.027344 -11.875 11.621094 -11.722656 11.214844 -11.519531 L 5.734375 -8.726562 C 4.871094 -8.273438 3.957031 -7.816406 2.992188 -7.5625 L 2.839844 -7.5625 C 2.691406 -7.5625 2.589844 -7.5625 2.539062 -7.613281 C 2.285156 -7.765625 2.335938 -8.019531 2.488281 -8.222656 C 2.640625 -8.574219 2.839844 -8.929688 3.09375 -9.386719 C 3.550781 -10.148438 4.109375 -11.011719 4.667969 -11.925781 C 7.207031 -15.882812 12.484375 -24.917969 13.042969 -29.484375 C 13.195312 -30.09375 13.144531 -30.601562 12.535156 -30.957031 C 12.484375 -31.007812 12.382812 -31.007812 12.230469 -31.007812 C 11.0625 -31.007812 9.285156 -28.214844 8.171875 -26.234375 C 7.105469 -24.308594 5.582031 -21.109375 5.226562 -20.195312 C 1.726562 -11.46875 -1.117188 -2.488281 -1.523438 7.003906 C -1.574219 8.171875 -1.421875 9.335938 -1.269531 10.503906 C -1.117188 11.621094 -0.40625 13.804688 0.8125 13.804688 Z M 0.914062 12.179688 C 0.8125 12.179688 0.710938 12.128906 0.609375 11.976562 C 0.203125 11.214844 0.101562 10.503906 -0.0507812 9.742188 C -0.304688 7.765625 -0.203125 5.734375 0.0507812 3.753906 C 0.253906 1.574219 0.507812 -0.609375 1.117188 -2.640625 C 1.523438 -2.386719 1.625 -2.082031 1.675781 -1.828125 C 2.082031 -0.40625 2.386719 1.015625 2.4375 2.589844 C 2.589844 4.871094 2.4375 7.207031 2.082031 9.488281 C 1.929688 10.453125 1.777344 11.214844 1.21875 11.976562 C 1.167969 12.128906 1.066406 12.179688 0.914062 12.179688 Z M 4.3125 -13.398438 L 4.3125 -13.5 C 4.363281 -13.449219 4.414062 -13.398438 4.464844 -13.398438 C 4.210938 -13.753906 4.3125 -14.109375 4.464844 -14.460938 C 6.039062 -18.980469 7.714844 -23.34375 10.300781 -27.402344 C 10.453125 -27.65625 10.65625 -27.960938 10.808594 -28.316406 C 10.960938 -28.621094 11.214844 -28.824219 11.621094 -28.925781 C 11.773438 -28.570312 11.773438 -28.214844 11.621094 -27.910156 C 11.46875 -27.605469 11.367188 -27.300781 11.265625 -26.996094 C 9.4375 -22.175781 7.15625 -17.710938 4.464844 -13.398438 Z M 4.3125 -13.398438 "/></g></g></g><g fill="#795b4a" fill-opacity="0.302"><g transform="translate(154.773981, 43.044651)"><g><path d="M 0.914062 3.601562 C 1.726562 3.601562 2.691406 2.890625 3.144531 2.285156 C 4.769531 0.40625 6.597656 -2.082031 8.273438 -4.363281 C 9.691406 -6.292969 11.570312 -8.878906 12.585938 -10.097656 C 12.6875 -10.199219 12.738281 -10.300781 12.738281 -10.402344 C 12.890625 -10.707031 12.839844 -10.960938 12.585938 -11.164062 C 12.433594 -11.214844 12.332031 -11.265625 12.230469 -11.265625 C 12.179688 -11.265625 12.179688 -11.265625 12.128906 -11.265625 C 12.078125 -11.214844 12.078125 -11.214844 12.027344 -11.214844 C 11.773438 -11.113281 11.570312 -10.960938 11.417969 -10.808594 C 11.265625 -10.605469 11.0625 -10.402344 10.910156 -10.199219 C 9.4375 -8.726562 4.972656 -2.03125 2.839844 0.660156 C 2.589844 0.964844 2.335938 1.269531 2.082031 1.574219 C 1.828125 1.828125 1.523438 2.03125 1.066406 2.082031 C 0.304688 1.472656 0.558594 0.558594 0.609375 -0.203125 C 0.761719 -1.980469 0.964844 -3.601562 1.371094 -5.277344 C 2.03125 -8.222656 4.667969 -16.289062 5.835938 -18.878906 C 6.089844 -19.539062 6.597656 -19.839844 7.308594 -19.890625 L 18.21875 -20.855469 C 18.472656 -20.90625 18.675781 -20.90625 18.878906 -20.957031 C 19.082031 -20.957031 19.285156 -21.007812 19.539062 -21.058594 C 19.742188 -21.109375 19.839844 -21.3125 19.839844 -21.566406 C 19.792969 -21.921875 19.640625 -22.074219 19.4375 -22.074219 L 17.609375 -22.074219 C 16.1875 -21.921875 14.664062 -21.769531 12.992188 -21.667969 C 11.316406 -21.515625 9.792969 -21.363281 8.375 -21.210938 C 8.324219 -21.210938 8.222656 -21.210938 8.121094 -21.210938 C 8.019531 -21.160156 7.917969 -21.160156 7.816406 -21.160156 C 7.613281 -21.160156 7.410156 -21.210938 7.15625 -21.261719 C 7.15625 -21.515625 7.207031 -21.769531 7.308594 -21.972656 C 7.359375 -22.125 7.460938 -22.328125 7.511719 -22.480469 C 8.171875 -23.851562 8.828125 -25.171875 9.386719 -26.539062 C 9.640625 -26.996094 9.691406 -27.402344 9.640625 -27.65625 C 9.539062 -27.910156 9.386719 -28.011719 9.183594 -28.011719 C 8.828125 -28.011719 8.476562 -27.707031 8.121094 -27.097656 C 7.867188 -26.691406 7.613281 -26.285156 7.410156 -25.878906 C 7.15625 -25.472656 6.953125 -25.070312 6.699219 -24.664062 L 5.328125 -21.617188 C 5.074219 -21.058594 4.667969 -20.804688 4.058594 -20.753906 C 3.195312 -20.652344 2.285156 -20.550781 1.371094 -20.449219 C 0.457031 -20.347656 -0.457031 -20.246094 -1.371094 -20.09375 C -1.625 -20.042969 -1.878906 -19.992188 -2.132812 -19.941406 C -2.335938 -19.890625 -2.539062 -19.792969 -2.792969 -19.742188 C -3.042969 -19.691406 -3.09375 -19.488281 -3.042969 -19.183594 C -2.992188 -19.03125 -2.890625 -18.929688 -2.691406 -18.878906 C -2.539062 -18.828125 -2.386719 -18.828125 -2.132812 -18.828125 C -1.726562 -18.828125 -1.269531 -18.929688 -0.863281 -18.980469 C -0.203125 -19.03125 0.507812 -19.132812 1.21875 -19.234375 C 1.878906 -19.335938 2.589844 -19.4375 3.246094 -19.488281 L 3.652344 -19.488281 C 4.261719 -19.488281 4.3125 -19.234375 4.058594 -18.472656 C 3.703125 -17.609375 3.449219 -16.796875 3.09375 -15.832031 C 1.421875 -11.265625 -0.710938 -4.3125 -0.710938 0.609375 C -0.710938 1.777344 -0.40625 3.601562 0.914062 3.601562 Z M 0.914062 3.601562 "/></g></g></g><g fill="#795b4a" fill-opacity="0.502"><g transform="translate(16.892925, 42.244827)"><g><path d="M 0.761719 3.90625 C 0.914062 3.90625 1.066406 3.90625 1.167969 3.855469 C 1.421875 3.804688 1.675781 3.703125 1.929688 3.601562 C 2.183594 3.449219 2.4375 3.347656 2.691406 3.195312 C 4.363281 2.4375 6.140625 1.980469 7.917969 1.726562 C 10.910156 1.320312 13.703125 0.660156 16.542969 0 C 17 -0.0507812 17.8125 -0.253906 17.8125 -0.8125 C 17.863281 -1.167969 17.609375 -1.523438 17.253906 -1.472656 C 17.050781 -1.472656 16.796875 -1.371094 16.59375 -1.320312 C 14.410156 -0.863281 12.28125 -0.355469 10.097656 0.0507812 C 8.828125 0.304688 7.511719 0.507812 6.242188 0.761719 C 4.921875 0.964844 3.652344 1.320312 2.386719 1.878906 C 2.234375 1.929688 2.132812 1.929688 2.082031 1.878906 C 1.929688 1.878906 1.878906 1.828125 1.878906 1.675781 C 2.03125 1.21875 2.132812 0.8125 2.285156 0.40625 C 4.3125 -6.039062 6.445312 -12.332031 8.625 -18.675781 C 9.488281 -21.109375 10.503906 -23.496094 11.671875 -25.828125 L 12.890625 -28.367188 C 13.042969 -28.621094 13.09375 -28.824219 13.042969 -29.179688 C 12.992188 -29.382812 12.890625 -29.484375 12.738281 -29.484375 C 12.585938 -29.535156 12.484375 -29.535156 12.433594 -29.484375 C 11.824219 -29.128906 10.351562 -25.929688 9.691406 -24.410156 C 9.03125 -22.886719 7.511719 -19.183594 7.257812 -18.574219 C 5.988281 -15.171875 4.820312 -11.722656 3.753906 -8.273438 C 2.691406 -4.769531 1.472656 -1.320312 0.203125 2.132812 L 0.0507812 2.792969 C -0.101562 3.550781 0.101562 3.90625 0.761719 3.90625 Z M 0.761719 3.90625 "/></g></g></g><g fill="#795b4a" fill-opacity="0.502"><g transform="translate(31.151328, 42.244827)"><g><path d="M 2.183594 -1.828125 C 3.550781 -1.828125 4.921875 -2.890625 5.886719 -3.753906 C 8.121094 -5.632812 9.894531 -7.867188 11.671875 -10.148438 C 11.824219 -10.300781 11.925781 -10.453125 11.976562 -10.707031 C 12.027344 -10.960938 11.976562 -11.164062 11.773438 -11.316406 C 11.671875 -11.417969 11.570312 -11.46875 11.417969 -11.46875 C 11.316406 -11.46875 11.214844 -11.417969 11.164062 -11.367188 C 10.910156 -11.164062 10.65625 -10.960938 10.453125 -10.707031 C 10.046875 -10.25 9.640625 -9.742188 9.285156 -9.285156 C 8.929688 -8.828125 8.523438 -8.324219 8.121094 -7.867188 C 6.953125 -6.496094 5.734375 -5.328125 4.363281 -4.160156 C 3.753906 -3.703125 3.195312 -3.347656 2.4375 -3.195312 C 1.878906 -3.195312 1.574219 -3.246094 1.421875 -3.804688 C 1.320312 -4.261719 1.269531 -4.71875 1.320312 -5.125 C 1.625 -7.511719 2.386719 -10.046875 3.246094 -12.28125 C 3.296875 -12.535156 3.246094 -12.738281 2.992188 -12.839844 C 2.839844 -12.890625 2.742188 -12.941406 2.640625 -12.941406 C 2.539062 -12.941406 2.386719 -12.890625 2.234375 -12.789062 C 0.914062 -11.46875 0.355469 -7.359375 0 -5.125 C 0 -4.363281 0 -3.855469 0.203125 -3.296875 C 0.558594 -2.335938 1.21875 -1.828125 2.183594 -1.828125 Z M 3.5 -14.765625 C 4.058594 -14.765625 4.566406 -15.273438 4.566406 -15.832031 C 4.515625 -16.390625 4.160156 -16.644531 3.550781 -16.644531 C 2.941406 -16.644531 2.640625 -16.339844 2.640625 -15.730469 C 2.691406 -15.121094 3.042969 -14.714844 3.5 -14.765625 Z M 3.5 -14.765625 "/></g></g></g><g fill="#795b4a" fill-opacity="0.502"><g transform="translate(40.589275, 42.244827)"><g><path d="M 2.941406 17.964844 C 4.71875 17.964844 7.714844 10.910156 8.324219 9.132812 C 8.675781 8.222656 8.980469 7.308594 9.285156 6.394531 C 9.589844 5.480469 9.894531 4.566406 10.25 3.652344 C 10.910156 1.574219 15.882812 -3.347656 17.558594 -4.871094 C 19.335938 -6.445312 20.957031 -7.867188 22.632812 -9.4375 C 22.734375 -9.539062 22.835938 -9.640625 22.988281 -9.792969 C 23.089844 -9.894531 23.191406 -9.996094 23.292969 -10.148438 C 23.496094 -10.402344 23.496094 -10.65625 23.292969 -10.910156 C 23.191406 -11.0625 23.039062 -11.164062 22.835938 -11.164062 C 22.785156 -11.164062 22.683594 -11.113281 22.53125 -11.0625 L 21.769531 -10.453125 C 18.777344 -7.867188 15.882812 -5.226562 13.195312 -2.386719 C 13.042969 -2.234375 12.890625 -2.03125 12.789062 -1.878906 C 12.636719 -1.726562 12.433594 -1.625 12.179688 -1.574219 C 12.027344 -1.929688 12.128906 -2.183594 12.28125 -2.539062 C 13.144531 -5.785156 14.058594 -8.980469 15.222656 -12.230469 C 15.375 -12.585938 15.476562 -12.992188 15.578125 -13.398438 C 15.679688 -13.804688 15.78125 -14.207031 15.882812 -14.613281 C 15.933594 -14.96875 15.832031 -15.273438 15.476562 -15.476562 C 15.375 -15.527344 15.222656 -15.578125 15.070312 -15.578125 C 14.867188 -15.578125 14.714844 -15.527344 14.5625 -15.375 C 14.207031 -15.121094 13.90625 -14.816406 13.601562 -14.511719 C 13.246094 -14.207031 12.941406 -13.90625 12.585938 -13.601562 C 12.535156 -13.550781 12.433594 -13.449219 12.382812 -13.347656 C 12.28125 -13.246094 12.128906 -13.195312 11.976562 -13.195312 C 11.875 -13.195312 11.773438 -13.195312 11.722656 -13.246094 C 11.722656 -15.222656 10.148438 -16.238281 8.375 -16.238281 C 7.5625 -16.238281 6.800781 -15.984375 6.039062 -15.628906 C 2.992188 -14.058594 1.066406 -11.621094 0.203125 -8.324219 C 0 -7.359375 -0.101562 -6.496094 0.101562 -5.53125 C 0.355469 -4.363281 1.117188 -4.058594 2.183594 -4.058594 C 3.398438 -4.160156 6.140625 -6.089844 7.15625 -6.953125 C 8.121094 -7.714844 9.03125 -8.523438 9.945312 -9.335938 C 10.808594 -10.148438 11.722656 -10.960938 12.636719 -11.773438 C 12.789062 -11.925781 12.941406 -12.128906 13.09375 -12.28125 C 13.246094 -12.433594 13.449219 -12.585938 13.703125 -12.636719 C 13.855469 -12.179688 13.753906 -11.925781 13.601562 -11.570312 C 12.941406 -9.539062 12.332031 -7.511719 11.773438 -5.53125 C 11.164062 -3.550781 10.554688 -1.523438 9.945312 0.507812 C 9.691406 1.472656 9.183594 2.335938 8.523438 3.144531 C 5.988281 6.191406 2.890625 10.65625 1.929688 14.5625 C 1.726562 15.425781 1.726562 16.289062 1.878906 17.050781 C 2.082031 17.660156 2.4375 17.964844 2.941406 17.964844 Z M 3.296875 15.882812 C 3.246094 15.832031 3.246094 15.832031 3.195312 15.78125 C 3.144531 15.730469 3.09375 15.730469 3.09375 15.679688 C 3.144531 15.527344 3.144531 15.425781 3.144531 15.273438 C 3.144531 15.121094 3.195312 15.019531 3.246094 14.867188 C 3.804688 12.433594 5.683594 8.980469 7.257812 7.054688 C 7.410156 7.105469 7.511719 7.207031 7.511719 7.308594 C 7.511719 7.410156 7.511719 7.511719 7.460938 7.5625 C 6.496094 10.351562 5.328125 12.941406 3.753906 15.425781 C 3.703125 15.578125 3.601562 15.679688 3.449219 15.832031 C 3.398438 15.832031 3.398438 15.832031 3.398438 15.882812 C 3.347656 15.882812 3.347656 15.882812 3.296875 15.882812 Z M 1.980469 -5.378906 C 1.625 -5.378906 1.421875 -5.632812 1.371094 -6.089844 C 1.320312 -6.648438 1.320312 -7.15625 1.421875 -7.5625 C 2.082031 -10.757812 3.90625 -13.09375 6.800781 -14.511719 C 7.359375 -14.714844 7.765625 -14.867188 8.324219 -14.867188 C 9.335938 -14.867188 10.25 -14.511719 10.402344 -13.347656 L 10.402344 -12.484375 C 10.503906 -11.925781 10.25 -11.367188 9.589844 -10.808594 C 7.96875 -9.386719 6.34375 -7.917969 4.566406 -6.699219 C 3.90625 -6.242188 3.195312 -5.835938 2.4375 -5.480469 C 2.234375 -5.429688 2.082031 -5.378906 1.980469 -5.378906 Z M 1.980469 -5.378906 "/></g></g></g><g fill="#795b4a" fill-opacity="0.502"><g transform="translate(61.494835, 42.244827)"><g><path d="M 0.964844 1.625 C 1.117188 1.625 1.320312 1.523438 1.574219 1.371094 C 1.929688 1.117188 2.183594 0.761719 2.386719 0.304688 C 2.792969 -0.40625 3.195312 -1.117188 3.550781 -1.878906 C 4.972656 -4.820312 6.902344 -8.828125 9.132812 -11.316406 C 9.285156 -11.46875 9.488281 -11.671875 9.742188 -11.824219 C 9.792969 -11.875 9.84375 -11.875 9.894531 -11.875 C 10.046875 -11.875 10.097656 -11.824219 10.097656 -11.671875 C 10.148438 -11.417969 10.148438 -11.214844 10.148438 -11.011719 C 10.148438 -10.808594 10.148438 -10.605469 10.148438 -10.351562 C 10.097656 -9.285156 10.097656 -8.222656 10.300781 -7.207031 C 10.554688 -5.988281 11.214844 -5.378906 12.230469 -5.378906 C 13.550781 -5.378906 19.03125 -9.082031 19.4375 -10.554688 C 19.488281 -10.808594 19.386719 -11.011719 19.183594 -11.164062 C 19.132812 -11.214844 19.082031 -11.214844 19.03125 -11.265625 C 18.980469 -11.316406 18.878906 -11.316406 18.828125 -11.316406 C 18.726562 -11.316406 18.625 -11.265625 18.574219 -11.214844 C 18.371094 -11.0625 18.167969 -10.859375 18.015625 -10.65625 C 17.050781 -9.691406 14.109375 -7.460938 12.890625 -6.902344 C 12.6875 -6.800781 12.484375 -6.75 12.28125 -6.75 C 11.925781 -6.75 11.671875 -7.054688 11.570312 -7.613281 C 11.519531 -7.816406 11.46875 -8.019531 11.46875 -8.273438 C 11.46875 -8.476562 11.46875 -8.675781 11.46875 -8.929688 C 11.417969 -9.335938 11.417969 -9.742188 11.46875 -10.148438 C 11.46875 -10.554688 11.46875 -10.960938 11.46875 -11.417969 C 11.46875 -11.621094 11.46875 -11.824219 11.519531 -12.078125 C 11.519531 -12.28125 11.46875 -12.484375 11.417969 -12.738281 C 11.316406 -13.398438 10.960938 -13.753906 10.351562 -13.753906 C 10.046875 -13.753906 9.792969 -13.652344 9.589844 -13.5 C 6.953125 -11.671875 3.804688 -5.53125 2.4375 -2.640625 C 2.285156 -2.386719 2.183594 -2.132812 2.082031 -1.878906 C 1.980469 -1.625 1.777344 -1.371094 1.421875 -1.117188 C 1.371094 -1.472656 1.320312 -1.574219 1.320312 -1.777344 C 1.320312 -5.328125 2.890625 -13.5 4.871094 -16.644531 C 7.511719 -20.703125 9.539062 -24.867188 11.519531 -29.28125 C 11.621094 -29.535156 11.722656 -29.789062 11.824219 -30.042969 C 11.925781 -30.296875 12.027344 -30.550781 12.078125 -30.804688 C 12.128906 -30.957031 12.179688 -31.058594 12.179688 -31.207031 C 12.179688 -31.359375 12.179688 -31.460938 12.179688 -31.613281 C 12.179688 -31.867188 12.027344 -32.019531 11.671875 -32.019531 C 11.621094 -32.019531 11.570312 -32.019531 11.519531 -31.96875 C 11.265625 -31.816406 11.011719 -31.664062 10.859375 -31.511719 C 7.410156 -26.996094 4.71875 -21.261719 2.941406 -15.933594 C 2.742188 -15.375 2.539062 -14.867188 2.386719 -14.359375 C 2.183594 -13.855469 1.929688 -13.347656 1.574219 -12.890625 C 1.523438 -12.738281 1.421875 -12.636719 1.371094 -12.484375 C 1.269531 -12.332031 1.269531 -12.128906 1.320312 -11.976562 C 1.472656 -11.621094 1.523438 -11.265625 1.472656 -10.960938 C 1.371094 -10.65625 1.269531 -10.351562 1.21875 -10.046875 C 1.117188 -9.386719 1.015625 -8.726562 0.863281 -8.121094 C 0.710938 -7.460938 0.558594 -6.800781 0.457031 -6.140625 C 0.101562 -4.160156 -0.152344 -2.335938 0 -0.355469 C 0 0.101562 0.0507812 0.558594 0.152344 0.964844 C 0.304688 1.421875 0.609375 1.625 0.964844 1.625 Z M 7.105469 -22.734375 C 7.359375 -22.988281 7.410156 -23.242188 7.460938 -23.597656 C 7.511719 -23.34375 7.410156 -23.089844 7.15625 -22.785156 L 7.15625 -22.734375 Z M 7.5625 -23.699219 C 7.714844 -23.851562 7.816406 -23.902344 7.867188 -23.953125 Z M 8.019531 -24.207031 L 8.171875 -24.613281 C 8.121094 -24.5625 8.121094 -24.460938 8.121094 -24.410156 C 8.121094 -24.359375 8.070312 -24.257812 8.019531 -24.207031 Z M 8.019531 -24.207031 "/></g></g></g><g fill="#795b4a" fill-opacity="0.502"><g transform="translate(78.391799, 42.244827)"><g><path d="M 0.914062 3.601562 C 1.726562 3.601562 2.691406 2.890625 3.144531 2.285156 C 4.769531 0.40625 6.597656 -2.082031 8.273438 -4.363281 C 9.691406 -6.292969 11.570312 -8.878906 12.585938 -10.097656 C 12.6875 -10.199219 12.738281 -10.300781 12.738281 -10.402344 C 12.890625 -10.707031 12.839844 -10.960938 12.585938 -11.164062 C 12.433594 -11.214844 12.332031 -11.265625 12.230469 -11.265625 C 12.179688 -11.265625 12.179688 -11.265625 12.128906 -11.265625 C 12.078125 -11.214844 12.078125 -11.214844 12.027344 -11.214844 C 11.773438 -11.113281 11.570312 -10.960938 11.417969 -10.808594 C 11.265625 -10.605469 11.0625 -10.402344 10.910156 -10.199219 C 9.4375 -8.726562 4.972656 -2.03125 2.839844 0.660156 C 2.589844 0.964844 2.335938 1.269531 2.082031 1.574219 C 1.828125 1.828125 1.523438 2.03125 1.066406 2.082031 C 0.304688 1.472656 0.558594 0.558594 0.609375 -0.203125 C 0.761719 -1.980469 0.964844 -3.601562 1.371094 -5.277344 C 2.03125 -8.222656 4.667969 -16.289062 5.835938 -18.878906 C 6.089844 -19.539062 6.597656 -19.839844 7.308594 -19.890625 L 18.21875 -20.855469 C 18.472656 -20.90625 18.675781 -20.90625 18.878906 -20.957031 C 19.082031 -20.957031 19.285156 -21.007812 19.539062 -21.058594 C 19.742188 -21.109375 19.839844 -21.3125 19.839844 -21.566406 C 19.792969 -21.921875 19.640625 -22.074219 19.4375 -22.074219 L 17.609375 -22.074219 C 16.1875 -21.921875 14.664062 -21.769531 12.992188 -21.667969 C 11.316406 -21.515625 9.792969 -21.363281 8.375 -21.210938 C 8.324219 -21.210938 8.222656 -21.210938 8.121094 -21.210938 C 8.019531 -21.160156 7.917969 -21.160156 7.816406 -21.160156 C 7.613281 -21.160156 7.410156 -21.210938 7.15625 -21.261719 C 7.15625 -21.515625 7.207031 -21.769531 7.308594 -21.972656 C 7.359375 -22.125 7.460938 -22.328125 7.511719 -22.480469 C 8.171875 -23.851562 8.828125 -25.171875 9.386719 -26.539062 C 9.640625 -26.996094 9.691406 -27.402344 9.640625 -27.65625 C 9.539062 -27.910156 9.386719 -28.011719 9.183594 -28.011719 C 8.828125 -28.011719 8.476562 -27.707031 8.121094 -27.097656 C 7.867188 -26.691406 7.613281 -26.285156 7.410156 -25.878906 C 7.15625 -25.472656 6.953125 -25.070312 6.699219 -24.664062 L 5.328125 -21.617188 C 5.074219 -21.058594 4.667969 -20.804688 4.058594 -20.753906 C 3.195312 -20.652344 2.285156 -20.550781 1.371094 -20.449219 C 0.457031 -20.347656 -0.457031 -20.246094 -1.371094 -20.09375 C -1.625 -20.042969 -1.878906 -19.992188 -2.132812 -19.941406 C -2.335938 -19.890625 -2.539062 -19.792969 -2.792969 -19.742188 C -3.042969 -19.691406 -3.09375 -19.488281 -3.042969 -19.183594 C -2.992188 -19.03125 -2.890625 -18.929688 -2.691406 -18.878906 C -2.539062 -18.828125 -2.386719 -18.828125 -2.132812 -18.828125 C -1.726562 -18.828125 -1.269531 -18.929688 -0.863281 -18.980469 C -0.203125 -19.03125 0.507812 -19.132812 1.21875 -19.234375 C 1.878906 -19.335938 2.589844 -19.4375 3.246094 -19.488281 L 3.652344 -19.488281 C 4.261719 -19.488281 4.3125 -19.234375 4.058594 -18.472656 C 3.703125 -17.609375 3.449219 -16.796875 3.09375 -15.832031 C 1.421875 -11.265625 -0.710938 -4.3125 -0.710938 0.609375 C -0.710938 1.777344 -0.40625 3.601562 0.914062 3.601562 Z M 0.914062 3.601562 "/></g></g></g><g fill="#795b4a" fill-opacity="0.502"><g transform="translate(88.59087, 42.244827)"><g/></g></g><g fill="#795b4a" fill-opacity="0.502"><g transform="translate(107.872698, 42.244827)"><g><path d="M 7.867188 5.785156 C 8.222656 5.785156 8.574219 5.734375 8.878906 5.582031 C 11.773438 4.71875 15.476562 -0.203125 16.644531 -2.941406 C 17.101562 -3.90625 17.8125 -4.617188 18.777344 -5.125 C 20.144531 -5.785156 21.515625 -6.496094 22.886719 -7.257812 C 24.207031 -7.96875 25.523438 -8.675781 26.84375 -9.386719 C 27.046875 -9.488281 27.25 -9.589844 27.453125 -9.691406 C 27.65625 -9.792969 27.859375 -9.945312 28.011719 -10.097656 C 28.113281 -10.148438 28.164062 -10.300781 28.164062 -10.453125 C 28.164062 -10.605469 28.113281 -10.707031 28.0625 -10.859375 C 27.960938 -11.011719 27.808594 -11.113281 27.65625 -11.113281 C 27.554688 -11.113281 27.503906 -11.113281 27.453125 -11.0625 C 27.300781 -11.011719 27.097656 -10.910156 26.945312 -10.859375 C 26.742188 -10.808594 26.539062 -10.707031 26.386719 -10.65625 L 19.640625 -7.105469 C 19.488281 -7.003906 19.285156 -6.902344 19.132812 -6.800781 C 18.929688 -6.648438 18.726562 -6.597656 18.472656 -6.597656 L 18.269531 -6.597656 C 18.167969 -6.851562 18.167969 -7.105469 18.21875 -7.359375 C 18.269531 -7.5625 18.320312 -7.816406 18.320312 -8.070312 C 18.371094 -10.453125 17 -11.976562 14.613281 -12.128906 C 13.753906 -12.128906 12.941406 -12.128906 12.128906 -11.925781 C 11.367188 -11.773438 10.65625 -11.621094 9.894531 -11.46875 C 9.132812 -11.316406 8.375 -11.113281 7.613281 -10.960938 C 7.207031 -10.910156 6.800781 -10.808594 6.394531 -10.757812 C 5.988281 -10.65625 5.582031 -10.554688 5.175781 -10.503906 C 5.074219 -10.503906 4.972656 -10.503906 4.921875 -10.503906 C 4.820312 -10.453125 4.71875 -10.453125 4.617188 -10.453125 C 2.839844 -10.453125 1.777344 -11.417969 1.421875 -13.398438 C 1.167969 -14.664062 1.269531 -15.933594 1.625 -17.304688 C 3.398438 -23.546875 7.003906 -28.417969 12.433594 -31.917969 C 14.007812 -32.933594 16.1875 -33.796875 18.066406 -33.796875 C 20.246094 -33.796875 22.125 -32.882812 22.125 -30.449219 C 22.125 -27.65625 18.980469 -21.921875 16.035156 -21.414062 C 15.984375 -21.363281 15.933594 -21.363281 15.882812 -21.363281 C 15.832031 -21.363281 15.730469 -21.3125 15.679688 -21.261719 C 15.425781 -21.058594 15.324219 -20.855469 15.375 -20.601562 C 15.425781 -20.195312 15.78125 -20.144531 16.136719 -20.144531 C 17.710938 -20.144531 19.03125 -21.464844 19.992188 -22.53125 C 21.464844 -24.511719 22.53125 -26.589844 23.191406 -28.875 C 23.394531 -29.484375 23.445312 -30.144531 23.394531 -30.855469 C 23.242188 -33.746094 20.753906 -35.117188 18.015625 -35.117188 C 15.578125 -35.117188 13.144531 -34.050781 11.113281 -32.679688 C 6.242188 -29.433594 1.726562 -23.445312 0.40625 -17.761719 C -0.0507812 -15.984375 -0.203125 -14.257812 0.253906 -12.484375 C 0.863281 -10.25 2.488281 -9.183594 4.71875 -9.183594 C 5.785156 -9.183594 6.902344 -9.4375 7.917969 -9.640625 C 8.675781 -9.792969 9.488281 -9.996094 10.300781 -10.148438 C 11.0625 -10.300781 11.875 -10.503906 12.636719 -10.65625 C 13.144531 -10.757812 13.703125 -10.808594 14.257812 -10.808594 C 16.238281 -10.757812 17.152344 -9.742188 16.949219 -7.664062 C 16.796875 -6.496094 16.441406 -5.328125 15.425781 -4.71875 C 14.765625 -4.363281 14.109375 -3.957031 13.5 -3.601562 C 12.839844 -3.195312 12.230469 -2.792969 11.570312 -2.4375 C 9.691406 -1.269531 7.359375 0.660156 6.191406 2.640625 C 5.734375 3.5 5.785156 4.3125 6.445312 5.125 C 6.800781 5.582031 7.308594 5.785156 7.867188 5.785156 Z M 7.96875 4.464844 C 7.816406 4.464844 7.613281 4.363281 7.460938 4.210938 C 7.257812 3.957031 7.207031 3.703125 7.257812 3.449219 C 8.070312 1.269531 12.433594 -1.472656 14.613281 -2.691406 C 13.652344 0 11.417969 2.640625 9.234375 3.90625 C 8.878906 4.109375 8.574219 4.261719 8.222656 4.414062 C 8.171875 4.464844 8.070312 4.464844 7.96875 4.464844 Z M 7.96875 4.464844 "/></g></g></g><g fill="#795b4a" fill-opacity="0.502"><g transform="translate(133.497228, 42.244827)"><g><path d="M 2.132812 -2.539062 C 2.589844 -2.539062 3.09375 -2.691406 3.550781 -2.941406 C 4.210938 -3.398438 4.71875 -3.957031 5.074219 -4.71875 C 5.53125 -5.683594 5.632812 -6.648438 5.429688 -7.613281 C 5.277344 -8.476562 5.226562 -8.476562 6.191406 -8.625 C 7.257812 -8.726562 8.222656 -8.980469 9.183594 -9.335938 C 10.097656 -9.691406 11.0625 -9.996094 12.027344 -10.351562 C 12.484375 -10.503906 12.585938 -10.808594 12.433594 -11.164062 C 12.28125 -11.417969 12.027344 -11.570312 11.773438 -11.570312 L 10.960938 -11.367188 C 10.503906 -11.214844 10.046875 -11.011719 9.589844 -10.859375 C 9.132812 -10.707031 8.625 -10.503906 8.171875 -10.351562 C 7.207031 -10.046875 6.292969 -9.894531 5.328125 -9.894531 L 3.753906 -9.894531 C 3.398438 -9.84375 3.09375 -9.488281 3.246094 -9.132812 C 3.398438 -8.777344 3.550781 -8.476562 3.753906 -8.121094 C 4.515625 -6.953125 4.261719 -5.886719 3.601562 -4.820312 C 3.144531 -4.007812 2.640625 -3.90625 1.828125 -3.90625 C 1.167969 -4.058594 0.8125 -4.667969 0.8125 -5.632812 C 0.8125 -6.191406 0.863281 -6.699219 1.015625 -7.105469 C 1.21875 -7.96875 1.574219 -8.828125 2.03125 -9.691406 C 2.589844 -10.554688 3.042969 -11.417969 4.210938 -11.621094 C 4.566406 -11.671875 4.566406 -11.925781 4.515625 -12.28125 C 4.464844 -12.535156 4.3125 -12.738281 3.957031 -12.789062 C 3.703125 -12.789062 3.5 -12.738281 3.296875 -12.636719 C 1.320312 -11.875 -0.355469 -8.070312 -0.507812 -5.988281 C -0.558594 -5.582031 -0.507812 -5.125 -0.40625 -4.667969 C -0.152344 -3.296875 0.914062 -2.539062 2.132812 -2.539062 Z M 2.132812 -2.539062 "/></g></g></g><g fill="#795b4a" fill-opacity="0.502"><g transform="translate(143.442594, 42.244827)"><g><path d="M 0.8125 13.804688 C 2.183594 13.804688 3.144531 11.214844 3.296875 9.894531 C 3.449219 9.183594 3.550781 8.476562 3.601562 7.765625 C 3.652344 7.054688 3.703125 6.34375 3.753906 5.632812 C 4.007812 2.234375 3.449219 -1.167969 2.183594 -4.464844 L 1.878906 -5.226562 C 1.828125 -5.480469 1.929688 -5.632812 2.132812 -5.785156 C 2.488281 -5.988281 2.941406 -6.140625 3.398438 -6.242188 C 4.363281 -6.597656 5.175781 -6.953125 6.140625 -7.410156 C 7.105469 -7.917969 8.070312 -8.425781 9.03125 -8.929688 C 9.996094 -9.386719 10.960938 -9.894531 11.925781 -10.351562 C 12.078125 -10.453125 12.28125 -10.554688 12.433594 -10.65625 C 12.585938 -10.707031 12.789062 -10.808594 12.941406 -10.910156 C 13.195312 -11.0625 13.296875 -11.316406 13.195312 -11.621094 C 13.144531 -11.925781 12.941406 -12.078125 12.585938 -12.078125 C 12.535156 -12.078125 12.535156 -12.078125 12.535156 -12.078125 C 12.484375 -12.027344 12.484375 -12.027344 12.433594 -12.027344 C 12.027344 -11.875 11.621094 -11.722656 11.214844 -11.519531 L 5.734375 -8.726562 C 4.871094 -8.273438 3.957031 -7.816406 2.992188 -7.5625 L 2.839844 -7.5625 C 2.691406 -7.5625 2.589844 -7.5625 2.539062 -7.613281 C 2.285156 -7.765625 2.335938 -8.019531 2.488281 -8.222656 C 2.640625 -8.574219 2.839844 -8.929688 3.09375 -9.386719 C 3.550781 -10.148438 4.109375 -11.011719 4.667969 -11.925781 C 7.207031 -15.882812 12.484375 -24.917969 13.042969 -29.484375 C 13.195312 -30.09375 13.144531 -30.601562 12.535156 -30.957031 C 12.484375 -31.007812 12.382812 -31.007812 12.230469 -31.007812 C 11.0625 -31.007812 9.285156 -28.214844 8.171875 -26.234375 C 7.105469 -24.308594 5.582031 -21.109375 5.226562 -20.195312 C 1.726562 -11.46875 -1.117188 -2.488281 -1.523438 7.003906 C -1.574219 8.171875 -1.421875 9.335938 -1.269531 10.503906 C -1.117188 11.621094 -0.40625 13.804688 0.8125 13.804688 Z M 0.914062 12.179688 C 0.8125 12.179688 0.710938 12.128906 0.609375 11.976562 C 0.203125 11.214844 0.101562 10.503906 -0.0507812 9.742188 C -0.304688 7.765625 -0.203125 5.734375 0.0507812 3.753906 C 0.253906 1.574219 0.507812 -0.609375 1.117188 -2.640625 C 1.523438 -2.386719 1.625 -2.082031 1.675781 -1.828125 C 2.082031 -0.40625 2.386719 1.015625 2.4375 2.589844 C 2.589844 4.871094 2.4375 7.207031 2.082031 9.488281 C 1.929688 10.453125 1.777344 11.214844 1.21875 11.976562 C 1.167969 12.128906 1.066406 12.179688 0.914062 12.179688 Z M 4.3125 -13.398438 L 4.3125 -13.5 C 4.363281 -13.449219 4.414062 -13.398438 4.464844 -13.398438 C 4.210938 -13.753906 4.3125 -14.109375 4.464844 -14.460938 C 6.039062 -18.980469 7.714844 -23.34375 10.300781 -27.402344 C 10.453125 -27.65625 10.65625 -27.960938 10.808594 -28.316406 C 10.960938 -28.621094 11.214844 -28.824219 11.621094 -28.925781 C 11.773438 -28.570312 11.773438 -28.214844 11.621094 -27.910156 C 11.46875 -27.605469 11.367188 -27.300781 11.265625 -26.996094 C 9.4375 -22.175781 7.15625 -17.710938 4.464844 -13.398438 Z M 4.3125 -13.398438 "/></g></g></g><g fill="#795b4a" fill-opacity="0.502"><g transform="translate(154.14909, 42.244827)"><g><path d="M 0.914062 3.601562 C 1.726562 3.601562 2.691406 2.890625 3.144531 2.285156 C 4.769531 0.40625 6.597656 -2.082031 8.273438 -4.363281 C 9.691406 -6.292969 11.570312 -8.878906 12.585938 -10.097656 C 12.6875 -10.199219 12.738281 -10.300781 12.738281 -10.402344 C 12.890625 -10.707031 12.839844 -10.960938 12.585938 -11.164062 C 12.433594 -11.214844 12.332031 -11.265625 12.230469 -11.265625 C 12.179688 -11.265625 12.179688 -11.265625 12.128906 -11.265625 C 12.078125 -11.214844 12.078125 -11.214844 12.027344 -11.214844 C 11.773438 -11.113281 11.570312 -10.960938 11.417969 -10.808594 C 11.265625 -10.605469 11.0625 -10.402344 10.910156 -10.199219 C 9.4375 -8.726562 4.972656 -2.03125 2.839844 0.660156 C 2.589844 0.964844 2.335938 1.269531 2.082031 1.574219 C 1.828125 1.828125 1.523438 2.03125 1.066406 2.082031 C 0.304688 1.472656 0.558594 0.558594 0.609375 -0.203125 C 0.761719 -1.980469 0.964844 -3.601562 1.371094 -5.277344 C 2.03125 -8.222656 4.667969 -16.289062 5.835938 -18.878906 C 6.089844 -19.539062 6.597656 -19.839844 7.308594 -19.890625 L 18.21875 -20.855469 C 18.472656 -20.90625 18.675781 -20.90625 18.878906 -20.957031 C 19.082031 -20.957031 19.285156 -21.007812 19.539062 -21.058594 C 19.742188 -21.109375 19.839844 -21.3125 19.839844 -21.566406 C 19.792969 -21.921875 19.640625 -22.074219 19.4375 -22.074219 L 17.609375 -22.074219 C 16.1875 -21.921875 14.664062 -21.769531 12.992188 -21.667969 C 11.316406 -21.515625 9.792969 -21.363281 8.375 -21.210938 C 8.324219 -21.210938 8.222656 -21.210938 8.121094 -21.210938 C 8.019531 -21.160156 7.917969 -21.160156 7.816406 -21.160156 C 7.613281 -21.160156 7.410156 -21.210938 7.15625 -21.261719 C 7.15625 -21.515625 7.207031 -21.769531 7.308594 -21.972656 C 7.359375 -22.125 7.460938 -22.328125 7.511719 -22.480469 C 8.171875 -23.851562 8.828125 -25.171875 9.386719 -26.539062 C 9.640625 -26.996094 9.691406 -27.402344 9.640625 -27.65625 C 9.539062 -27.910156 9.386719 -28.011719 9.183594 -28.011719 C 8.828125 -28.011719 8.476562 -27.707031 8.121094 -27.097656 C 7.867188 -26.691406 7.613281 -26.285156 7.410156 -25.878906 C 7.15625 -25.472656 6.953125 -25.070312 6.699219 -24.664062 L 5.328125 -21.617188 C 5.074219 -21.058594 4.667969 -20.804688 4.058594 -20.753906 C 3.195312 -20.652344 2.285156 -20.550781 1.371094 -20.449219 C 0.457031 -20.347656 -0.457031 -20.246094 -1.371094 -20.09375 C -1.625 -20.042969 -1.878906 -19.992188 -2.132812 -19.941406 C -2.335938 -19.890625 -2.539062 -19.792969 -2.792969 -19.742188 C -3.042969 -19.691406 -3.09375 -19.488281 -3.042969 -19.183594 C -2.992188 -19.03125 -2.890625 -18.929688 -2.691406 -18.878906 C -2.539062 -18.828125 -2.386719 -18.828125 -2.132812 -18.828125 C -1.726562 -18.828125 -1.269531 -18.929688 -0.863281 -18.980469 C -0.203125 -19.03125 0.507812 -19.132812 1.21875 -19.234375 C 1.878906 -19.335938 2.589844 -19.4375 3.246094 -19.488281 L 3.652344 -19.488281 C 4.261719 -19.488281 4.3125 -19.234375 4.058594 -18.472656 C 3.703125 -17.609375 3.449219 -16.796875 3.09375 -15.832031 C 1.421875 -11.265625 -0.710938 -4.3125 -0.710938 0.609375 C -0.710938 1.777344 -0.40625 3.601562 0.914062 3.601562 Z M 0.914062 3.601562 "/></g></g></g><g fill="#3d3b3a" fill-opacity="1"><g transform="translate(16.268034, 41.445003)"><g><path d="M 0.761719 3.90625 C 0.914062 3.90625 1.066406 3.90625 1.167969 3.855469 C 1.421875 3.804688 1.675781 3.703125 1.929688 3.601562 C 2.183594 3.449219 2.4375 3.347656 2.691406 3.195312 C 4.363281 2.4375 6.140625 1.980469 7.917969 1.726562 C 10.910156 1.320312 13.703125 0.660156 16.542969 0 C 17 -0.0507812 17.8125 -0.253906 17.8125 -0.8125 C 17.863281 -1.167969 17.609375 -1.523438 17.253906 -1.472656 C 17.050781 -1.472656 16.796875 -1.371094 16.59375 -1.320312 C 14.410156 -0.863281 12.28125 -0.355469 10.097656 0.0507812 C 8.828125 0.304688 7.511719 0.507812 6.242188 0.761719 C 4.921875 0.964844 3.652344 1.320312 2.386719 1.878906 C 2.234375 1.929688 2.132812 1.929688 2.082031 1.878906 C 1.929688 1.878906 1.878906 1.828125 1.878906 1.675781 C 2.03125 1.21875 2.132812 0.8125 2.285156 0.40625 C 4.3125 -6.039062 6.445312 -12.332031 8.625 -18.675781 C 9.488281 -21.109375 10.503906 -23.496094 11.671875 -25.828125 L 12.890625 -28.367188 C 13.042969 -28.621094 13.09375 -28.824219 13.042969 -29.179688 C 12.992188 -29.382812 12.890625 -29.484375 12.738281 -29.484375 C 12.585938 -29.535156 12.484375 -29.535156 12.433594 -29.484375 C 11.824219 -29.128906 10.351562 -25.929688 9.691406 -24.410156 C 9.03125 -22.886719 7.511719 -19.183594 7.257812 -18.574219 C 5.988281 -15.171875 4.820312 -11.722656 3.753906 -8.273438 C 2.691406 -4.769531 1.472656 -1.320312 0.203125 2.132812 L 0.0507812 2.792969 C -0.101562 3.550781 0.101562 3.90625 0.761719 3.90625 Z M 0.761719 3.90625 "/></g></g></g><g fill="#3d3b3a" fill-opacity="1"><g transform="translate(30.526437, 41.445003)"><g><path d="M 2.183594 -1.828125 C 3.550781 -1.828125 4.921875 -2.890625 5.886719 -3.753906 C 8.121094 -5.632812 9.894531 -7.867188 11.671875 -10.148438 C 11.824219 -10.300781 11.925781 -10.453125 11.976562 -10.707031 C 12.027344 -10.960938 11.976562 -11.164062 11.773438 -11.316406 C 11.671875 -11.417969 11.570312 -11.46875 11.417969 -11.46875 C 11.316406 -11.46875 11.214844 -11.417969 11.164062 -11.367188 C 10.910156 -11.164062 10.65625 -10.960938 10.453125 -10.707031 C 10.046875 -10.25 9.640625 -9.742188 9.285156 -9.285156 C 8.929688 -8.828125 8.523438 -8.324219 8.121094 -7.867188 C 6.953125 -6.496094 5.734375 -5.328125 4.363281 -4.160156 C 3.753906 -3.703125 3.195312 -3.347656 2.4375 -3.195312 C 1.878906 -3.195312 1.574219 -3.246094 1.421875 -3.804688 C 1.320312 -4.261719 1.269531 -4.71875 1.320312 -5.125 C 1.625 -7.511719 2.386719 -10.046875 3.246094 -12.28125 C 3.296875 -12.535156 3.246094 -12.738281 2.992188 -12.839844 C 2.839844 -12.890625 2.742188 -12.941406 2.640625 -12.941406 C 2.539062 -12.941406 2.386719 -12.890625 2.234375 -12.789062 C 0.914062 -11.46875 0.355469 -7.359375 0 -5.125 C 0 -4.363281 0 -3.855469 0.203125 -3.296875 C 0.558594 -2.335938 1.21875 -1.828125 2.183594 -1.828125 Z M 3.5 -14.765625 C 4.058594 -14.765625 4.566406 -15.273438 4.566406 -15.832031 C 4.515625 -16.390625 4.160156 -16.644531 3.550781 -16.644531 C 2.941406 -16.644531 2.640625 -16.339844 2.640625 -15.730469 C 2.691406 -15.121094 3.042969 -14.714844 3.5 -14.765625 Z M 3.5 -14.765625 "/></g></g></g><g fill="#3d3b3a" fill-opacity="1"><g transform="translate(39.964384, 41.445003)"><g><path d="M 2.941406 17.964844 C 4.71875 17.964844 7.714844 10.910156 8.324219 9.132812 C 8.675781 8.222656 8.980469 7.308594 9.285156 6.394531 C 9.589844 5.480469 9.894531 4.566406 10.25 3.652344 C 10.910156 1.574219 15.882812 -3.347656 17.558594 -4.871094 C 19.335938 -6.445312 20.957031 -7.867188 22.632812 -9.4375 C 22.734375 -9.539062 22.835938 -9.640625 22.988281 -9.792969 C 23.089844 -9.894531 23.191406 -9.996094 23.292969 -10.148438 C 23.496094 -10.402344 23.496094 -10.65625 23.292969 -10.910156 C 23.191406 -11.0625 23.039062 -11.164062 22.835938 -11.164062 C 22.785156 -11.164062 22.683594 -11.113281 22.53125 -11.0625 L 21.769531 -10.453125 C 18.777344 -7.867188 15.882812 -5.226562 13.195312 -2.386719 C 13.042969 -2.234375 12.890625 -2.03125 12.789062 -1.878906 C 12.636719 -1.726562 12.433594 -1.625 12.179688 -1.574219 C 12.027344 -1.929688 12.128906 -2.183594 12.28125 -2.539062 C 13.144531 -5.785156 14.058594 -8.980469 15.222656 -12.230469 C 15.375 -12.585938 15.476562 -12.992188 15.578125 -13.398438 C 15.679688 -13.804688 15.78125 -14.207031 15.882812 -14.613281 C 15.933594 -14.96875 15.832031 -15.273438 15.476562 -15.476562 C 15.375 -15.527344 15.222656 -15.578125 15.070312 -15.578125 C 14.867188 -15.578125 14.714844 -15.527344 14.5625 -15.375 C 14.207031 -15.121094 13.90625 -14.816406 13.601562 -14.511719 C 13.246094 -14.207031 12.941406 -13.90625 12.585938 -13.601562 C 12.535156 -13.550781 12.433594 -13.449219 12.382812 -13.347656 C 12.28125 -13.246094 12.128906 -13.195312 11.976562 -13.195312 C 11.875 -13.195312 11.773438 -13.195312 11.722656 -13.246094 C 11.722656 -15.222656 10.148438 -16.238281 8.375 -16.238281 C 7.5625 -16.238281 6.800781 -15.984375 6.039062 -15.628906 C 2.992188 -14.058594 1.066406 -11.621094 0.203125 -8.324219 C 0 -7.359375 -0.101562 -6.496094 0.101562 -5.53125 C 0.355469 -4.363281 1.117188 -4.058594 2.183594 -4.058594 C 3.398438 -4.160156 6.140625 -6.089844 7.15625 -6.953125 C 8.121094 -7.714844 9.03125 -8.523438 9.945312 -9.335938 C 10.808594 -10.148438 11.722656 -10.960938 12.636719 -11.773438 C 12.789062 -11.925781 12.941406 -12.128906 13.09375 -12.28125 C 13.246094 -12.433594 13.449219 -12.585938 13.703125 -12.636719 C 13.855469 -12.179688 13.753906 -11.925781 13.601562 -11.570312 C 12.941406 -9.539062 12.332031 -7.511719 11.773438 -5.53125 C 11.164062 -3.550781 10.554688 -1.523438 9.945312 0.507812 C 9.691406 1.472656 9.183594 2.335938 8.523438 3.144531 C 5.988281 6.191406 2.890625 10.65625 1.929688 14.5625 C 1.726562 15.425781 1.726562 16.289062 1.878906 17.050781 C 2.082031 17.660156 2.4375 17.964844 2.941406 17.964844 Z M 3.296875 15.882812 C 3.246094 15.832031 3.246094 15.832031 3.195312 15.78125 C 3.144531 15.730469 3.09375 15.730469 3.09375 15.679688 C 3.144531 15.527344 3.144531 15.425781 3.144531 15.273438 C 3.144531 15.121094 3.195312 15.019531 3.246094 14.867188 C 3.804688 12.433594 5.683594 8.980469 7.257812 7.054688 C 7.410156 7.105469 7.511719 7.207031 7.511719 7.308594 C 7.511719 7.410156 7.511719 7.511719 7.460938 7.5625 C 6.496094 10.351562 5.328125 12.941406 3.753906 15.425781 C 3.703125 15.578125 3.601562 15.679688 3.449219 15.832031 C 3.398438 15.832031 3.398438 15.832031 3.398438 15.882812 C 3.347656 15.882812 3.347656 15.882812 3.296875 15.882812 Z M 1.980469 -5.378906 C 1.625 -5.378906 1.421875 -5.632812 1.371094 -6.089844 C 1.320312 -6.648438 1.320312 -7.15625 1.421875 -7.5625 C 2.082031 -10.757812 3.90625 -13.09375 6.800781 -14.511719 C 7.359375 -14.714844 7.765625 -14.867188 8.324219 -14.867188 C 9.335938 -14.867188 10.25 -14.511719 10.402344 -13.347656 L 10.402344 -12.484375 C 10.503906 -11.925781 10.25 -11.367188 9.589844 -10.808594 C 7.96875 -9.386719 6.34375 -7.917969 4.566406 -6.699219 C 3.90625 -6.242188 3.195312 -5.835938 2.4375 -5.480469 C 2.234375 -5.429688 2.082031 -5.378906 1.980469 -5.378906 Z M 1.980469 -5.378906 "/></g></g></g><g fill="#3d3b3a" fill-opacity="1"><g transform="translate(60.869944, 41.445003)"><g><path d="M 0.964844 1.625 C 1.117188 1.625 1.320312 1.523438 1.574219 1.371094 C 1.929688 1.117188 2.183594 0.761719 2.386719 0.304688 C 2.792969 -0.40625 3.195312 -1.117188 3.550781 -1.878906 C 4.972656 -4.820312 6.902344 -8.828125 9.132812 -11.316406 C 9.285156 -11.46875 9.488281 -11.671875 9.742188 -11.824219 C 9.792969 -11.875 9.84375 -11.875 9.894531 -11.875 C 10.046875 -11.875 10.097656 -11.824219 10.097656 -11.671875 C 10.148438 -11.417969 10.148438 -11.214844 10.148438 -11.011719 C 10.148438 -10.808594 10.148438 -10.605469 10.148438 -10.351562 C 10.097656 -9.285156 10.097656 -8.222656 10.300781 -7.207031 C 10.554688 -5.988281 11.214844 -5.378906 12.230469 -5.378906 C 13.550781 -5.378906 19.03125 -9.082031 19.4375 -10.554688 C 19.488281 -10.808594 19.386719 -11.011719 19.183594 -11.164062 C 19.132812 -11.214844 19.082031 -11.214844 19.03125 -11.265625 C 18.980469 -11.316406 18.878906 -11.316406 18.828125 -11.316406 C 18.726562 -11.316406 18.625 -11.265625 18.574219 -11.214844 C 18.371094 -11.0625 18.167969 -10.859375 18.015625 -10.65625 C 17.050781 -9.691406 14.109375 -7.460938 12.890625 -6.902344 C 12.6875 -6.800781 12.484375 -6.75 12.28125 -6.75 C 11.925781 -6.75 11.671875 -7.054688 11.570312 -7.613281 C 11.519531 -7.816406 11.46875 -8.019531 11.46875 -8.273438 C 11.46875 -8.476562 11.46875 -8.675781 11.46875 -8.929688 C 11.417969 -9.335938 11.417969 -9.742188 11.46875 -10.148438 C 11.46875 -10.554688 11.46875 -10.960938 11.46875 -11.417969 C 11.46875 -11.621094 11.46875 -11.824219 11.519531 -12.078125 C 11.519531 -12.28125 11.46875 -12.484375 11.417969 -12.738281 C 11.316406 -13.398438 10.960938 -13.753906 10.351562 -13.753906 C 10.046875 -13.753906 9.792969 -13.652344 9.589844 -13.5 C 6.953125 -11.671875 3.804688 -5.53125 2.4375 -2.640625 C 2.285156 -2.386719 2.183594 -2.132812 2.082031 -1.878906 C 1.980469 -1.625 1.777344 -1.371094 1.421875 -1.117188 C 1.371094 -1.472656 1.320312 -1.574219 1.320312 -1.777344 C 1.320312 -5.328125 2.890625 -13.5 4.871094 -16.644531 C 7.511719 -20.703125 9.539062 -24.867188 11.519531 -29.28125 C 11.621094 -29.535156 11.722656 -29.789062 11.824219 -30.042969 C 11.925781 -30.296875 12.027344 -30.550781 12.078125 -30.804688 C 12.128906 -30.957031 12.179688 -31.058594 12.179688 -31.207031 C 12.179688 -31.359375 12.179688 -31.460938 12.179688 -31.613281 C 12.179688 -31.867188 12.027344 -32.019531 11.671875 -32.019531 C 11.621094 -32.019531 11.570312 -32.019531 11.519531 -31.96875 C 11.265625 -31.816406 11.011719 -31.664062 10.859375 -31.511719 C 7.410156 -26.996094 4.71875 -21.261719 2.941406 -15.933594 C 2.742188 -15.375 2.539062 -14.867188 2.386719 -14.359375 C 2.183594 -13.855469 1.929688 -13.347656 1.574219 -12.890625 C 1.523438 -12.738281 1.421875 -12.636719 1.371094 -12.484375 C 1.269531 -12.332031 1.269531 -12.128906 1.320312 -11.976562 C 1.472656 -11.621094 1.523438 -11.265625 1.472656 -10.960938 C 1.371094 -10.65625 1.269531 -10.351562 1.21875 -10.046875 C 1.117188 -9.386719 1.015625 -8.726562 0.863281 -8.121094 C 0.710938 -7.460938 0.558594 -6.800781 0.457031 -6.140625 C 0.101562 -4.160156 -0.152344 -2.335938 0 -0.355469 C 0 0.101562 0.0507812 0.558594 0.152344 0.964844 C 0.304688 1.421875 0.609375 1.625 0.964844 1.625 Z M 7.105469 -22.734375 C 7.359375 -22.988281 7.410156 -23.242188 7.460938 -23.597656 C 7.511719 -23.34375 7.410156 -23.089844 7.15625 -22.785156 L 7.15625 -22.734375 Z M 7.5625 -23.699219 C 7.714844 -23.851562 7.816406 -23.902344 7.867188 -23.953125 Z M 8.019531 -24.207031 L 8.171875 -24.613281 C 8.121094 -24.5625 8.121094 -24.460938 8.121094 -24.410156 C 8.121094 -24.359375 8.070312 -24.257812 8.019531 -24.207031 Z M 8.019531 -24.207031 "/></g></g></g><g fill="#3d3b3a" fill-opacity="1"><g transform="translate(77.766909, 41.445003)"><g><path d="M 0.914062 3.601562 C 1.726562 3.601562 2.691406 2.890625 3.144531 2.285156 C 4.769531 0.40625 6.597656 -2.082031 8.273438 -4.363281 C 9.691406 -6.292969 11.570312 -8.878906 12.585938 -10.097656 C 12.6875 -10.199219 12.738281 -10.300781 12.738281 -10.402344 C 12.890625 -10.707031 12.839844 -10.960938 12.585938 -11.164062 C 12.433594 -11.214844 12.332031 -11.265625 12.230469 -11.265625 C 12.179688 -11.265625 12.179688 -11.265625 12.128906 -11.265625 C 12.078125 -11.214844 12.078125 -11.214844 12.027344 -11.214844 C 11.773438 -11.113281 11.570312 -10.960938 11.417969 -10.808594 C 11.265625 -10.605469 11.0625 -10.402344 10.910156 -10.199219 C 9.4375 -8.726562 4.972656 -2.03125 2.839844 0.660156 C 2.589844 0.964844 2.335938 1.269531 2.082031 1.574219 C 1.828125 1.828125 1.523438 2.03125 1.066406 2.082031 C 0.304688 1.472656 0.558594 0.558594 0.609375 -0.203125 C 0.761719 -1.980469 0.964844 -3.601562 1.371094 -5.277344 C 2.03125 -8.222656 4.667969 -16.289062 5.835938 -18.878906 C 6.089844 -19.539062 6.597656 -19.839844 7.308594 -19.890625 L 18.21875 -20.855469 C 18.472656 -20.90625 18.675781 -20.90625 18.878906 -20.957031 C 19.082031 -20.957031 19.285156 -21.007812 19.539062 -21.058594 C 19.742188 -21.109375 19.839844 -21.3125 19.839844 -21.566406 C 19.792969 -21.921875 19.640625 -22.074219 19.4375 -22.074219 L 17.609375 -22.074219 C 16.1875 -21.921875 14.664062 -21.769531 12.992188 -21.667969 C 11.316406 -21.515625 9.792969 -21.363281 8.375 -21.210938 C 8.324219 -21.210938 8.222656 -21.210938 8.121094 -21.210938 C 8.019531 -21.160156 7.917969 -21.160156 7.816406 -21.160156 C 7.613281 -21.160156 7.410156 -21.210938 7.15625 -21.261719 C 7.15625 -21.515625 7.207031 -21.769531 7.308594 -21.972656 C 7.359375 -22.125 7.460938 -22.328125 7.511719 -22.480469 C 8.171875 -23.851562 8.828125 -25.171875 9.386719 -26.539062 C 9.640625 -26.996094 9.691406 -27.402344 9.640625 -27.65625 C 9.539062 -27.910156 9.386719 -28.011719 9.183594 -28.011719 C 8.828125 -28.011719 8.476562 -27.707031 8.121094 -27.097656 C 7.867188 -26.691406 7.613281 -26.285156 7.410156 -25.878906 C 7.15625 -25.472656 6.953125 -25.070312 6.699219 -24.664062 L 5.328125 -21.617188 C 5.074219 -21.058594 4.667969 -20.804688 4.058594 -20.753906 C 3.195312 -20.652344 2.285156 -20.550781 1.371094 -20.449219 C 0.457031 -20.347656 -0.457031 -20.246094 -1.371094 -20.09375 C -1.625 -20.042969 -1.878906 -19.992188 -2.132812 -19.941406 C -2.335938 -19.890625 -2.539062 -19.792969 -2.792969 -19.742188 C -3.042969 -19.691406 -3.09375 -19.488281 -3.042969 -19.183594 C -2.992188 -19.03125 -2.890625 -18.929688 -2.691406 -18.878906 C -2.539062 -18.828125 -2.386719 -18.828125 -2.132812 -18.828125 C -1.726562 -18.828125 -1.269531 -18.929688 -0.863281 -18.980469 C -0.203125 -19.03125 0.507812 -19.132812 1.21875 -19.234375 C 1.878906 -19.335938 2.589844 -19.4375 3.246094 -19.488281 L 3.652344 -19.488281 C 4.261719 -19.488281 4.3125 -19.234375 4.058594 -18.472656 C 3.703125 -17.609375 3.449219 -16.796875 3.09375 -15.832031 C 1.421875 -11.265625 -0.710938 -4.3125 -0.710938 0.609375 C -0.710938 1.777344 -0.40625 3.601562 0.914062 3.601562 Z M 0.914062 3.601562 "/></g></g></g><g fill="#3d3b3a" fill-opacity="1"><g transform="translate(87.965979, 41.445003)"><g/></g></g><g fill="#3d3b3a" fill-opacity="1"><g transform="translate(107.247807, 41.445003)"><g><path d="M 7.867188 5.785156 C 8.222656 5.785156 8.574219 5.734375 8.878906 5.582031 C 11.773438 4.71875 15.476562 -0.203125 16.644531 -2.941406 C 17.101562 -3.90625 17.8125 -4.617188 18.777344 -5.125 C 20.144531 -5.785156 21.515625 -6.496094 22.886719 -7.257812 C 24.207031 -7.96875 25.523438 -8.675781 26.84375 -9.386719 C 27.046875 -9.488281 27.25 -9.589844 27.453125 -9.691406 C 27.65625 -9.792969 27.859375 -9.945312 28.011719 -10.097656 C 28.113281 -10.148438 28.164062 -10.300781 28.164062 -10.453125 C 28.164062 -10.605469 28.113281 -10.707031 28.0625 -10.859375 C 27.960938 -11.011719 27.808594 -11.113281 27.65625 -11.113281 C 27.554688 -11.113281 27.503906 -11.113281 27.453125 -11.0625 C 27.300781 -11.011719 27.097656 -10.910156 26.945312 -10.859375 C 26.742188 -10.808594 26.539062 -10.707031 26.386719 -10.65625 L 19.640625 -7.105469 C 19.488281 -7.003906 19.285156 -6.902344 19.132812 -6.800781 C 18.929688 -6.648438 18.726562 -6.597656 18.472656 -6.597656 L 18.269531 -6.597656 C 18.167969 -6.851562 18.167969 -7.105469 18.21875 -7.359375 C 18.269531 -7.5625 18.320312 -7.816406 18.320312 -8.070312 C 18.371094 -10.453125 17 -11.976562 14.613281 -12.128906 C 13.753906 -12.128906 12.941406 -12.128906 12.128906 -11.925781 C 11.367188 -11.773438 10.65625 -11.621094 9.894531 -11.46875 C 9.132812 -11.316406 8.375 -11.113281 7.613281 -10.960938 C 7.207031 -10.910156 6.800781 -10.808594 6.394531 -10.757812 C 5.988281 -10.65625 5.582031 -10.554688 5.175781 -10.503906 C 5.074219 -10.503906 4.972656 -10.503906 4.921875 -10.503906 C 4.820312 -10.453125 4.71875 -10.453125 4.617188 -10.453125 C 2.839844 -10.453125 1.777344 -11.417969 1.421875 -13.398438 C 1.167969 -14.664062 1.269531 -15.933594 1.625 -17.304688 C 3.398438 -23.546875 7.003906 -28.417969 12.433594 -31.917969 C 14.007812 -32.933594 16.1875 -33.796875 18.066406 -33.796875 C 20.246094 -33.796875 22.125 -32.882812 22.125 -30.449219 C 22.125 -27.65625 18.980469 -21.921875 16.035156 -21.414062 C 15.984375 -21.363281 15.933594 -21.363281 15.882812 -21.363281 C 15.832031 -21.363281 15.730469 -21.3125 15.679688 -21.261719 C 15.425781 -21.058594 15.324219 -20.855469 15.375 -20.601562 C 15.425781 -20.195312 15.78125 -20.144531 16.136719 -20.144531 C 17.710938 -20.144531 19.03125 -21.464844 19.992188 -22.53125 C 21.464844 -24.511719 22.53125 -26.589844 23.191406 -28.875 C 23.394531 -29.484375 23.445312 -30.144531 23.394531 -30.855469 C 23.242188 -33.746094 20.753906 -35.117188 18.015625 -35.117188 C 15.578125 -35.117188 13.144531 -34.050781 11.113281 -32.679688 C 6.242188 -29.433594 1.726562 -23.445312 0.40625 -17.761719 C -0.0507812 -15.984375 -0.203125 -14.257812 0.253906 -12.484375 C 0.863281 -10.25 2.488281 -9.183594 4.71875 -9.183594 C 5.785156 -9.183594 6.902344 -9.4375 7.917969 -9.640625 C 8.675781 -9.792969 9.488281 -9.996094 10.300781 -10.148438 C 11.0625 -10.300781 11.875 -10.503906 12.636719 -10.65625 C 13.144531 -10.757812 13.703125 -10.808594 14.257812 -10.808594 C 16.238281 -10.757812 17.152344 -9.742188 16.949219 -7.664062 C 16.796875 -6.496094 16.441406 -5.328125 15.425781 -4.71875 C 14.765625 -4.363281 14.109375 -3.957031 13.5 -3.601562 C 12.839844 -3.195312 12.230469 -2.792969 11.570312 -2.4375 C 9.691406 -1.269531 7.359375 0.660156 6.191406 2.640625 C 5.734375 3.5 5.785156 4.3125 6.445312 5.125 C 6.800781 5.582031 7.308594 5.785156 7.867188 5.785156 Z M 7.96875 4.464844 C 7.816406 4.464844 7.613281 4.363281 7.460938 4.210938 C 7.257812 3.957031 7.207031 3.703125 7.257812 3.449219 C 8.070312 1.269531 12.433594 -1.472656 14.613281 -2.691406 C 13.652344 0 11.417969 2.640625 9.234375 3.90625 C 8.878906 4.109375 8.574219 4.261719 8.222656 4.414062 C 8.171875 4.464844 8.070312 4.464844 7.96875 4.464844 Z M 7.96875 4.464844 "/></g></g></g><g fill="#3d3b3a" fill-opacity="1"><g transform="translate(132.872337, 41.445003)"><g><path d="M 2.132812 -2.539062 C 2.589844 -2.539062 3.09375 -2.691406 3.550781 -2.941406 C 4.210938 -3.398438 4.71875 -3.957031 5.074219 -4.71875 C 5.53125 -5.683594 5.632812 -6.648438 5.429688 -7.613281 C 5.277344 -8.476562 5.226562 -8.476562 6.191406 -8.625 C 7.257812 -8.726562 8.222656 -8.980469 9.183594 -9.335938 C 10.097656 -9.691406 11.0625 -9.996094 12.027344 -10.351562 C 12.484375 -10.503906 12.585938 -10.808594 12.433594 -11.164062 C 12.28125 -11.417969 12.027344 -11.570312 11.773438 -11.570312 L 10.960938 -11.367188 C 10.503906 -11.214844 10.046875 -11.011719 9.589844 -10.859375 C 9.132812 -10.707031 8.625 -10.503906 8.171875 -10.351562 C 7.207031 -10.046875 6.292969 -9.894531 5.328125 -9.894531 L 3.753906 -9.894531 C 3.398438 -9.84375 3.09375 -9.488281 3.246094 -9.132812 C 3.398438 -8.777344 3.550781 -8.476562 3.753906 -8.121094 C 4.515625 -6.953125 4.261719 -5.886719 3.601562 -4.820312 C 3.144531 -4.007812 2.640625 -3.90625 1.828125 -3.90625 C 1.167969 -4.058594 0.8125 -4.667969 0.8125 -5.632812 C 0.8125 -6.191406 0.863281 -6.699219 1.015625 -7.105469 C 1.21875 -7.96875 1.574219 -8.828125 2.03125 -9.691406 C 2.589844 -10.554688 3.042969 -11.417969 4.210938 -11.621094 C 4.566406 -11.671875 4.566406 -11.925781 4.515625 -12.28125 C 4.464844 -12.535156 4.3125 -12.738281 3.957031 -12.789062 C 3.703125 -12.789062 3.5 -12.738281 3.296875 -12.636719 C 1.320312 -11.875 -0.355469 -8.070312 -0.507812 -5.988281 C -0.558594 -5.582031 -0.507812 -5.125 -0.40625 -4.667969 C -0.152344 -3.296875 0.914062 -2.539062 2.132812 -2.539062 Z M 2.132812 -2.539062 "/></g></g></g><g fill="#3d3b3a" fill-opacity="1"><g transform="translate(142.817703, 41.445003)"><g><path d="M 0.8125 13.804688 C 2.183594 13.804688 3.144531 11.214844 3.296875 9.894531 C 3.449219 9.183594 3.550781 8.476562 3.601562 7.765625 C 3.652344 7.054688 3.703125 6.34375 3.753906 5.632812 C 4.007812 2.234375 3.449219 -1.167969 2.183594 -4.464844 L 1.878906 -5.226562 C 1.828125 -5.480469 1.929688 -5.632812 2.132812 -5.785156 C 2.488281 -5.988281 2.941406 -6.140625 3.398438 -6.242188 C 4.363281 -6.597656 5.175781 -6.953125 6.140625 -7.410156 C 7.105469 -7.917969 8.070312 -8.425781 9.03125 -8.929688 C 9.996094 -9.386719 10.960938 -9.894531 11.925781 -10.351562 C 12.078125 -10.453125 12.28125 -10.554688 12.433594 -10.65625 C 12.585938 -10.707031 12.789062 -10.808594 12.941406 -10.910156 C 13.195312 -11.0625 13.296875 -11.316406 13.195312 -11.621094 C 13.144531 -11.925781 12.941406 -12.078125 12.585938 -12.078125 C 12.535156 -12.078125 12.535156 -12.078125 12.535156 -12.078125 C 12.484375 -12.027344 12.484375 -12.027344 12.433594 -12.027344 C 12.027344 -11.875 11.621094 -11.722656 11.214844 -11.519531 L 5.734375 -8.726562 C 4.871094 -8.273438 3.957031 -7.816406 2.992188 -7.5625 L 2.839844 -7.5625 C 2.691406 -7.5625 2.589844 -7.5625 2.539062 -7.613281 C 2.285156 -7.765625 2.335938 -8.019531 2.488281 -8.222656 C 2.640625 -8.574219 2.839844 -8.929688 3.09375 -9.386719 C 3.550781 -10.148438 4.109375 -11.011719 4.667969 -11.925781 C 7.207031 -15.882812 12.484375 -24.917969 13.042969 -29.484375 C 13.195312 -30.09375 13.144531 -30.601562 12.535156 -30.957031 C 12.484375 -31.007812 12.382812 -31.007812 12.230469 -31.007812 C 11.0625 -31.007812 9.285156 -28.214844 8.171875 -26.234375 C 7.105469 -24.308594 5.582031 -21.109375 5.226562 -20.195312 C 1.726562 -11.46875 -1.117188 -2.488281 -1.523438 7.003906 C -1.574219 8.171875 -1.421875 9.335938 -1.269531 10.503906 C -1.117188 11.621094 -0.40625 13.804688 0.8125 13.804688 Z M 0.914062 12.179688 C 0.8125 12.179688 0.710938 12.128906 0.609375 11.976562 C 0.203125 11.214844 0.101562 10.503906 -0.0507812 9.742188 C -0.304688 7.765625 -0.203125 5.734375 0.0507812 3.753906 C 0.253906 1.574219 0.507812 -0.609375 1.117188 -2.640625 C 1.523438 -2.386719 1.625 -2.082031 1.675781 -1.828125 C 2.082031 -0.40625 2.386719 1.015625 2.4375 2.589844 C 2.589844 4.871094 2.4375 7.207031 2.082031 9.488281 C 1.929688 10.453125 1.777344 11.214844 1.21875 11.976562 C 1.167969 12.128906 1.066406 12.179688 0.914062 12.179688 Z M 4.3125 -13.398438 L 4.3125 -13.5 C 4.363281 -13.449219 4.414062 -13.398438 4.464844 -13.398438 C 4.210938 -13.753906 4.3125 -14.109375 4.464844 -14.460938 C 6.039062 -18.980469 7.714844 -23.34375 10.300781 -27.402344 C 10.453125 -27.65625 10.65625 -27.960938 10.808594 -28.316406 C 10.960938 -28.621094 11.214844 -28.824219 11.621094 -28.925781 C 11.773438 -28.570312 11.773438 -28.214844 11.621094 -27.910156 C 11.46875 -27.605469 11.367188 -27.300781 11.265625 -26.996094 C 9.4375 -22.175781 7.15625 -17.710938 4.464844 -13.398438 Z M 4.3125 -13.398438 "/></g></g></g><g fill="#3d3b3a" fill-opacity="1"><g transform="translate(153.524199, 41.445003)"><g><path d="M 0.914062 3.601562 C 1.726562 3.601562 2.691406 2.890625 3.144531 2.285156 C 4.769531 0.40625 6.597656 -2.082031 8.273438 -4.363281 C 9.691406 -6.292969 11.570312 -8.878906 12.585938 -10.097656 C 12.6875 -10.199219 12.738281 -10.300781 12.738281 -10.402344 C 12.890625 -10.707031 12.839844 -10.960938 12.585938 -11.164062 C 12.433594 -11.214844 12.332031 -11.265625 12.230469 -11.265625 C 12.179688 -11.265625 12.179688 -11.265625 12.128906 -11.265625 C 12.078125 -11.214844 12.078125 -11.214844 12.027344 -11.214844 C 11.773438 -11.113281 11.570312 -10.960938 11.417969 -10.808594 C 11.265625 -10.605469 11.0625 -10.402344 10.910156 -10.199219 C 9.4375 -8.726562 4.972656 -2.03125 2.839844 0.660156 C 2.589844 0.964844 2.335938 1.269531 2.082031 1.574219 C 1.828125 1.828125 1.523438 2.03125 1.066406 2.082031 C 0.304688 1.472656 0.558594 0.558594 0.609375 -0.203125 C 0.761719 -1.980469 0.964844 -3.601562 1.371094 -5.277344 C 2.03125 -8.222656 4.667969 -16.289062 5.835938 -18.878906 C 6.089844 -19.539062 6.597656 -19.839844 7.308594 -19.890625 L 18.21875 -20.855469 C 18.472656 -20.90625 18.675781 -20.90625 18.878906 -20.957031 C 19.082031 -20.957031 19.285156 -21.007812 19.539062 -21.058594 C 19.742188 -21.109375 19.839844 -21.3125 19.839844 -21.566406 C 19.792969 -21.921875 19.640625 -22.074219 19.4375 -22.074219 L 17.609375 -22.074219 C 16.1875 -21.921875 14.664062 -21.769531 12.992188 -21.667969 C 11.316406 -21.515625 9.792969 -21.363281 8.375 -21.210938 C 8.324219 -21.210938 8.222656 -21.210938 8.121094 -21.210938 C 8.019531 -21.160156 7.917969 -21.160156 7.816406 -21.160156 C 7.613281 -21.160156 7.410156 -21.210938 7.15625 -21.261719 C 7.15625 -21.515625 7.207031 -21.769531 7.308594 -21.972656 C 7.359375 -22.125 7.460938 -22.328125 7.511719 -22.480469 C 8.171875 -23.851562 8.828125 -25.171875 9.386719 -26.539062 C 9.640625 -26.996094 9.691406 -27.402344 9.640625 -27.65625 C 9.539062 -27.910156 9.386719 -28.011719 9.183594 -28.011719 C 8.828125 -28.011719 8.476562 -27.707031 8.121094 -27.097656 C 7.867188 -26.691406 7.613281 -26.285156 7.410156 -25.878906 C 7.15625 -25.472656 6.953125 -25.070312 6.699219 -24.664062 L 5.328125 -21.617188 C 5.074219 -21.058594 4.667969 -20.804688 4.058594 -20.753906 C 3.195312 -20.652344 2.285156 -20.550781 1.371094 -20.449219 C 0.457031 -20.347656 -0.457031 -20.246094 -1.371094 -20.09375 C -1.625 -20.042969 -1.878906 -19.992188 -2.132812 -19.941406 C -2.335938 -19.890625 -2.539062 -19.792969 -2.792969 -19.742188 C -3.042969 -19.691406 -3.09375 -19.488281 -3.042969 -19.183594 C -2.992188 -19.03125 -2.890625 -18.929688 -2.691406 -18.878906 C -2.539062 -18.828125 -2.386719 -18.828125 -2.132812 -18.828125 C -1.726562 -18.828125 -1.269531 -18.929688 -0.863281 -18.980469 C -0.203125 -19.03125 0.507812 -19.132812 1.21875 -19.234375 C 1.878906 -19.335938 2.589844 -19.4375 3.246094 -19.488281 L 3.652344 -19.488281 C 4.261719 -19.488281 4.3125 -19.234375 4.058594 -18.472656 C 3.703125 -17.609375 3.449219 -16.796875 3.09375 -15.832031 C 1.421875 -11.265625 -0.710938 -4.3125 -0.710938 0.609375 C -0.710938 1.777344 -0.40625 3.601562 0.914062 3.601562 Z M 0.914062 3.601562 "/></g></g></g></svg>